<svg width="40" height="40" viewBox="0 0 40 40" fill="none" xmlns="http://www.w3.org/2000/svg">
<path d="M26.6668 32.7779C26.6668 32.7779 32.7779 30.199 32.7779 25.0402C32.7779 22.9768 32.7779 20.3968 32.7779 20.3968L26.6668 18.3335L20.5557 20.3968V25.0402C20.5557 30.199 26.6668 32.7779 26.6668 32.7779Z" fill="#AF5B29"/>
<path d="M27.7779 32.2002C27.1223 32.589 26.6668 32.7779 26.6668 32.7779C26.6668 32.7779 20.5557 30.2002 20.5557 25.0446C20.5557 21.9446 20.5557 20.4002 20.5557 20.4002L26.6668 18.3335L27.7779 18.7113L22.7779 20.4002V25.0446C22.7779 28.8002 26.0223 31.189 27.7779 32.2002Z" fill="#7A2F03"/>
<path d="M12.2222 13.6109C10.2311 13.6109 8.61108 11.9909 8.61108 9.99978C8.61108 8.00867 10.2311 6.38867 12.2222 6.38867C14.2133 6.38867 15.8333 8.00867 15.8333 9.99978C15.8333 11.9909 14.2133 13.6109 12.2222 13.6109ZM12.2222 8.05534C11.15 8.05534 10.2778 8.92756 10.2778 9.99978C10.2778 11.072 11.15 11.9442 12.2222 11.9442C13.2944 11.9442 14.1666 11.072 14.1666 9.99978C14.1666 8.92756 13.2944 8.05534 12.2222 8.05534Z" fill="black"/>
<path d="M13.8889 33.6109H10.5556C9.48336 33.6109 8.61114 32.7387 8.61114 31.6665V25.6865C8.61114 25.5798 8.55225 25.4854 8.45892 25.4376L7.46336 24.9409C6.80114 24.6098 6.38892 23.9443 6.38892 23.2021V18.3332C6.38892 16.0354 8.2578 14.1665 10.5556 14.1665H13.8889C16.1867 14.1665 18.0556 16.0354 18.0556 18.3332V23.2021C18.0556 23.9443 17.6434 24.6109 16.98 24.9409L15.9867 25.4376C15.8922 25.4854 15.8334 25.5798 15.8334 25.6865V31.6665C15.8334 32.7387 14.9611 33.6109 13.8889 33.6109ZM10.5556 15.8332C9.17669 15.8332 8.05558 16.9543 8.05558 18.3332V23.2021C8.05558 23.3087 8.11447 23.4032 8.2078 23.4509L9.20336 23.9476C9.86558 24.2787 10.2778 24.9443 10.2778 25.6865V31.6665C10.2778 31.8198 10.4022 31.9443 10.5556 31.9443H13.8889C14.0422 31.9443 14.1667 31.8198 14.1667 31.6665V25.6865C14.1667 24.9443 14.5789 24.2776 15.2422 23.9476L16.2356 23.4509C16.33 23.4032 16.3889 23.3087 16.3889 23.2021V18.3332C16.3889 16.9543 15.2678 15.8332 13.8889 15.8332H10.5556Z" fill="black"/>
<path d="M26.6669 33.6113C26.5569 33.6113 26.4469 33.5891 26.3424 33.5458C26.0713 33.4302 19.7224 30.6869 19.7224 25.0402V20.3969C19.7224 20.0391 19.9502 19.7224 20.2891 19.608L26.4002 17.5447C26.5724 17.4858 26.7602 17.4858 26.9324 17.5447L33.0435 19.608C33.3824 19.7224 33.6102 20.0402 33.6102 20.3969V25.0402C33.6102 30.6869 27.2602 33.4313 26.9902 33.5458C26.8869 33.5891 26.7769 33.6113 26.6669 33.6113ZM21.3891 20.9958V25.0413C21.3891 28.948 25.4702 31.2635 26.6658 31.858C27.8602 31.2613 31.9446 28.9324 31.9446 25.0413V20.9958L26.6669 19.2135L21.3891 20.9958Z" fill="black"/>
<path d="M26.1111 28.0557C26.0956 28.0557 26.08 28.0557 26.0645 28.0546C25.8278 28.0413 25.6078 27.928 25.46 27.7435L23.2378 24.9657L24.5389 23.9235L26.18 25.9746L29.4111 22.7446L30.59 23.9235L26.7011 27.8124C26.5433 27.968 26.3311 28.0557 26.1111 28.0557Z" fill="black"/>
<path d="M33.3334 9.99983C32.4145 9.99983 31.6667 9.25206 31.6667 8.33317C31.6667 7.41428 32.4145 6.6665 33.3334 6.6665C34.2523 6.6665 35.0001 7.41428 35.0001 8.33317C35.0001 9.25206 34.2523 9.99983 33.3334 9.99983ZM33.3334 7.77761C33.0268 7.77761 32.7779 8.0265 32.7779 8.33317C32.7779 8.63984 33.0268 8.88872 33.3334 8.88872C33.6401 8.88872 33.889 8.63984 33.889 8.33317C33.889 8.0265 33.6401 7.77761 33.3334 7.77761Z" fill="#EFD9CB"/>
</svg>
