<svg width="100" height="100" viewBox="0 0 100 100" fill="none" xmlns="http://www.w3.org/2000/svg">
<g clip-path="url(#clip0)">
<path d="M21.3276 15.4551C16.3138 34.0023 3.26097 44.1412 0.844307 53.0801C-1.57236 62.019 -1.50847 82.1773 39.6082 93.294C80.7249 104.411 93.586 80.7912 96.2415 70.9579C108.689 24.9245 30.2082 -17.3949 21.3276 15.4551Z" fill="#EDEDED"/>
<path d="M15.9722 88.1938H21.5277V90.9716H15.9722V88.1938Z" fill="#EFD9CB"/>
<path d="M0 88.1938H5.55556V90.9716H0V88.1938Z" fill="#EFD9CB"/>
<path d="M9.72217 78.4717H12.4999V84.0272H9.72217V78.4717Z" fill="#EFD9CB"/>
<path d="M9.72217 94.4438H12.4999V99.9994H9.72217V94.4438Z" fill="#EFD9CB"/>
<path d="M36.2751 12.8216C33.9778 12.8216 32.1084 10.9522 32.1084 8.65495C32.1084 6.35772 33.9778 4.48828 36.2751 4.48828C38.5723 4.48828 40.4417 6.35772 40.4417 8.65495C40.4417 10.9522 38.5723 12.8216 36.2751 12.8216ZM36.2751 7.26606C35.5112 7.26606 34.8862 7.88828 34.8862 8.65495C34.8862 9.42161 35.5112 10.0438 36.2751 10.0438C37.039 10.0438 37.664 9.42161 37.664 8.65495C37.664 7.88828 37.039 7.26606 36.2751 7.26606Z" fill="#EFD9CB"/>
<path d="M21.5278 81.2497H42.3611C43.8944 81.2497 45.1389 80.0052 45.1389 78.4719V42.3608C45.1389 40.8275 43.8944 39.583 42.3611 39.583H21.5278C19.9944 39.583 18.75 40.8275 18.75 42.3608V78.4719C18.75 80.0052 19.9944 81.2497 21.5278 81.2497Z" fill="#AF5B29"/>
<path d="M78.4722 31.2495H43.7499C42.2166 31.2495 40.9722 30.0051 40.9722 28.4717V21.5273C40.9722 19.994 42.2166 18.7495 43.7499 18.7495H78.4722C80.0055 18.7495 81.2499 19.994 81.2499 21.5273V28.4717C81.2499 30.0051 80.0055 31.2495 78.4722 31.2495Z" fill="#EDEDED"/>
<path d="M25 31.2495C21.5472 31.2495 18.75 28.4523 18.75 24.9995C18.75 21.5467 21.5472 18.7495 25 18.7495C28.4528 18.7495 31.25 21.5467 31.25 24.9995C31.25 28.4523 28.4528 31.2495 25 31.2495Z" fill="#EDEDED"/>
<path d="M25 78.4719V42.3608C25 40.8275 26.2444 39.583 27.7778 39.583H21.5278C19.9944 39.583 18.75 40.8275 18.75 42.3608V78.4719C18.75 80.0052 19.9944 81.2497 21.5278 81.2497H27.7778C26.2444 81.2497 25 80.0052 25 78.4719Z" fill="#7A2F03"/>
<path d="M47.2222 28.4717V21.5273C47.2222 19.994 48.4666 18.7495 49.9999 18.7495H43.7499C42.2166 18.7495 40.9722 19.994 40.9722 21.5273V28.4717C40.9722 30.0051 42.2166 31.2495 43.7499 31.2495H49.9999C48.4666 31.2495 47.2222 30.0051 47.2222 28.4717Z" fill="#CBCBCB"/>
<path d="M25 24.9995C25 22.6912 26.2639 20.6995 28.125 19.6162C27.2028 19.0801 26.1444 18.7495 25 18.7495C21.5472 18.7495 18.75 21.5467 18.75 24.9995C18.75 28.4523 21.5472 31.2495 25 31.2495C26.1444 31.2495 27.2028 30.919 28.125 30.3828C26.2639 29.2995 25 27.3078 25 24.9995Z" fill="#CBCBCB"/>
<path d="M54.8611 37.4995H81.25V41.6662H54.8611V37.4995Z" fill="black"/>
<path d="M54.8611 45.8325H81.25V49.9992H54.8611V45.8325Z" fill="black"/>
<path d="M54.8611 54.166H81.25V58.3327H54.8611V54.166Z" fill="black"/>
<path d="M54.8611 62.4995H81.25V66.6662H54.8611V62.4995Z" fill="black"/>
<path d="M54.8611 70.8325H81.25V74.9992H54.8611V70.8325Z" fill="black"/>
<path d="M42.3612 83.3328H21.5279C18.8473 83.3328 16.6667 81.1523 16.6667 78.4717V42.3606C16.6667 39.6801 18.8473 37.4995 21.5279 37.4995H42.3612C45.0417 37.4995 47.2223 39.6801 47.2223 42.3606V78.4717C47.2223 81.1523 45.0417 83.3328 42.3612 83.3328ZM21.5279 41.6662C21.1445 41.6662 20.8334 41.9773 20.8334 42.3606V78.4717C20.8334 78.8551 21.1445 79.1662 21.5279 79.1662H42.3612C42.7445 79.1662 43.0556 78.8551 43.0556 78.4717V42.3606C43.0556 41.9773 42.7445 41.6662 42.3612 41.6662H21.5279Z" fill="black"/>
<path d="M54.8611 79.166H81.25V83.3327H54.8611V79.166Z" fill="black"/>
<path d="M78.4723 33.3327H43.75C41.0695 33.3327 38.8889 31.1521 38.8889 28.4716V21.5271C38.8889 18.8466 41.0695 16.666 43.75 16.666H78.4723C81.1528 16.666 83.3334 18.8466 83.3334 21.5271V28.4716C83.3334 31.1521 81.1528 33.3327 78.4723 33.3327ZM43.75 20.8327C43.3667 20.8327 43.0556 21.1438 43.0556 21.5271V28.4716C43.0556 28.8549 43.3667 29.166 43.75 29.166H78.4723C78.8556 29.166 79.1667 28.8549 79.1667 28.4716V21.5271C79.1667 21.1438 78.8556 20.8327 78.4723 20.8327H43.75Z" fill="black"/>
<path d="M25.0001 33.3327C20.4056 33.3327 16.6667 29.5938 16.6667 24.9993C16.6667 20.4049 20.4056 16.666 25.0001 16.666C29.5945 16.666 33.3334 20.4049 33.3334 24.9993C33.3334 29.5938 29.5945 33.3327 25.0001 33.3327ZM25.0001 20.8327C22.7029 20.8327 20.8334 22.7021 20.8334 24.9993C20.8334 27.2966 22.7029 29.166 25.0001 29.166C27.2973 29.166 29.1667 27.2966 29.1667 24.9993C29.1667 22.7021 27.2973 20.8327 25.0001 20.8327Z" fill="black"/>
</g>
<defs>
<clipPath id="clip0">
<rect width="100" height="100" fill="white" transform="translate(0 -0.000488281)"/>
</clipPath>
</defs>
</svg>
