<svg width="100" height="100" viewBox="0 0 100 100" fill="none" xmlns="http://www.w3.org/2000/svg">
<path d="M11.5751 76.7303C11.5751 57.5164 1.62231 44.3219 1.62231 35.0636C1.62231 25.8053 6.94454 6.36084 49.5362 6.36084C92.1279 6.36084 98.3779 32.5192 98.3779 42.7025C98.3807 90.3886 11.5751 110.758 11.5751 76.7303Z" fill="#EDEDED"/>
<path d="M89.0466 9.23145L92.975 5.30307L94.9392 7.26726L91.0108 11.1956L89.0466 9.23145Z" fill="#EFD9CB"/>
<path d="M77.2739 7.27637L79.2381 5.31218L83.1665 9.24055L81.2023 11.2047L77.2739 7.27637Z" fill="#EFD9CB"/>
<path d="M88.5637 18.5737L90.5279 16.6095L94.4563 20.5379L92.4921 22.5021L88.5637 18.5737Z" fill="#EFD9CB"/>
<path d="M78.4722 64.5828H21.5278C19.9944 64.5828 18.75 63.3384 18.75 61.8051V21.5273C18.75 19.994 19.9944 18.7495 21.5278 18.7495H78.4722C80.0056 18.7495 81.25 19.994 81.25 21.5273V61.8051C81.25 63.3384 80.0056 64.5828 78.4722 64.5828Z" fill="#EDEDED"/>
<path d="M49.9998 56.2497C58.054 56.2497 64.5832 49.7205 64.5832 41.6663C64.5832 33.6122 58.054 27.083 49.9998 27.083C41.9457 27.083 35.4165 33.6122 35.4165 41.6663C35.4165 49.7205 41.9457 56.2497 49.9998 56.2497Z" fill="#EDEDED"/>
<path d="M35.4165 41.6663C35.4165 43.5274 35.7776 45.3052 36.4165 46.9441H37.4998C38.5832 46.9441 39.5276 46.5274 40.2221 45.833C40.9165 45.1385 41.361 44.1941 41.361 43.1107C41.3887 42.1663 41.7221 41.2774 42.2776 40.583C42.8887 39.8885 43.6665 39.3885 44.6109 39.1941C46.9998 38.6663 48.7221 36.5552 48.7221 34.1107V32.7218C48.7221 30.7218 47.8887 28.8607 46.4721 27.5552C40.1109 29.083 35.4165 34.833 35.4165 41.6663Z" fill="#AF5B29"/>
<path d="M61.3334 42.5552L60.4168 42.3052C59.6668 42.1107 58.8334 42.0552 58.0557 42.1663C56.4446 42.3607 54.9168 43.2218 53.8612 44.5274C51.6668 47.3885 51.9446 51.4718 54.5557 53.9441L55.7223 55.083C60.889 52.8607 64.5279 47.7774 64.5834 41.8052C63.6946 42.5274 62.5001 42.8607 61.3334 42.5552Z" fill="#AF5B29"/>
<path d="M25 61.8051V21.5273C25 19.994 26.2444 18.7495 27.7778 18.7495H21.5278C19.9944 18.7495 18.75 19.994 18.75 21.5273V61.8051C18.75 63.3384 19.9944 64.5828 21.5278 64.5828H27.7778C26.2444 64.5828 25 63.3384 25 61.8051Z" fill="#CBCBCB"/>
<path d="M41.6665 41.6663C41.6665 34.6886 46.5748 28.8691 53.1248 27.4358C52.1165 27.2163 51.0748 27.083 49.9998 27.083C41.9471 27.083 35.4165 33.6108 35.4165 41.6663C35.4165 49.7191 41.9471 56.2497 49.9998 56.2497C51.0748 56.2497 52.1165 56.1163 53.1248 55.8941C46.5748 54.4636 41.6665 48.6441 41.6665 41.6663Z" fill="#CBCBCB"/>
<path d="M41.6665 41.6661C41.6665 36.6772 44.186 32.2856 48.011 29.6717C47.6304 28.88 47.1221 28.1522 46.4721 27.5522C40.1109 29.08 35.4165 34.83 35.4165 41.6634C35.4165 43.5245 35.7776 45.3022 36.4165 46.9411H37.4998C38.5832 46.9411 39.5276 46.5245 40.2221 45.83C40.9165 45.1356 41.361 44.1911 41.361 43.1078C41.3748 42.6022 41.4915 42.1217 41.6665 41.6689C41.6665 41.6689 41.6665 41.6689 41.6665 41.6661Z" fill="#7A2F03"/>
<path d="M60.1112 44.5271C60.8112 43.6605 61.7307 43.016 62.7334 42.6049C62.2751 42.6743 61.8057 42.6771 61.3334 42.5549L60.4168 42.3049C59.6668 42.1104 58.8334 42.0549 58.0557 42.166C56.4446 42.3604 54.9168 43.2216 53.8612 44.5271C51.6668 47.3882 51.9446 51.4716 54.5557 53.9438L55.7223 55.0827C57.189 54.4521 58.514 53.5688 59.689 52.5216C58.1973 50.0855 58.2946 46.8938 60.1112 44.5271Z" fill="#7A2F03"/>
<path d="M78.4721 66.666H21.5276C18.8471 66.666 16.6665 64.4855 16.6665 61.8049V21.5271C16.6665 18.8466 18.8471 16.666 21.5276 16.666H78.4721C81.1526 16.666 83.3332 18.8466 83.3332 21.5271V61.8049C83.3332 64.4855 81.1526 66.666 78.4721 66.666ZM21.5276 20.8327C21.1443 20.8327 20.8332 21.1438 20.8332 21.5271V61.8049C20.8332 62.1882 21.1443 62.4993 21.5276 62.4993H78.4721C78.8554 62.4993 79.1665 62.1882 79.1665 61.8049V21.5271C79.1665 21.1438 78.8554 20.8327 78.4721 20.8327H21.5276Z" fill="black"/>
<path d="M37.5 64.583H41.6667V81.2497H37.5V64.583Z" fill="black"/>
<path d="M58.3335 64.583H62.5002V81.2497H58.3335V64.583Z" fill="black"/>
<path d="M5.55566 79.166H94.4446V83.3327H5.55566V79.166Z" fill="black"/>
<path d="M50.0002 58.3328C40.8085 58.3328 33.3335 50.8578 33.3335 41.6662C33.3335 32.4745 40.8085 24.9995 50.0002 24.9995C59.1918 24.9995 66.6668 32.4745 66.6668 41.6662C66.6668 50.8578 59.1918 58.3328 50.0002 58.3328ZM50.0002 29.1662C43.1085 29.1662 37.5002 34.7745 37.5002 41.6662C37.5002 48.5578 43.1085 54.1662 50.0002 54.1662C56.8918 54.1662 62.5002 48.5578 62.5002 41.6662C62.5002 34.7745 56.8918 29.1662 50.0002 29.1662Z" fill="black"/>
<path d="M36.9112 49.0273C36.8306 49.0273 36.7529 49.0273 36.6751 49.0273L36.4167 44.8607C38.0612 44.869 38.2723 44.8357 38.7501 44.3579C39.189 43.919 39.2112 43.694 39.2834 42.944C39.3723 42.0551 39.5056 40.7134 40.6529 39.2801C41.6556 38.1357 42.8584 37.4245 44.1945 37.1495C45.3834 36.8884 46.1806 36.0829 46.5362 34.7718C47.064 32.8162 46.4167 30.3079 45.0612 29.0579L47.8862 25.9912C50.3612 28.2718 51.4862 32.419 50.5612 35.8551C49.8056 38.6634 47.8001 40.6218 45.064 41.2273C44.5806 41.3245 44.1917 41.5634 43.8473 41.9579C43.5334 42.3551 43.5029 42.6662 43.4362 43.3551C43.339 44.3329 43.1945 45.8134 41.7001 47.3051C40.0501 48.9495 38.3945 49.0273 36.9112 49.0273Z" fill="black"/>
<path d="M54.2668 56.5744C50.8723 53.2605 49.6084 49.3383 50.8029 45.8105C51.8445 42.7299 54.5945 40.4855 57.8057 40.0966C59.3723 39.8716 60.5834 40.1883 61.4668 40.4188C62.5084 40.6911 62.6168 40.7188 63.2696 40.1855L65.8973 43.4188C63.6029 45.2827 61.7584 44.7994 60.4112 44.4494C59.6945 44.2605 59.1251 44.1188 58.3473 44.2244C56.7001 44.4244 55.2723 45.5966 54.7473 47.1438C54.0779 49.1188 54.9418 51.4077 57.1751 53.5883L54.2668 56.5744Z" fill="black"/>
</svg>
