<svg width="100" height="100" viewBox="0 0 100 100" fill="none" xmlns="http://www.w3.org/2000/svg">
<path d="M22.5388 15.4551C17.5249 34.0023 4.47216 44.1412 2.05549 53.0801C-0.361178 62.019 -0.297291 82.1773 40.8194 93.294C81.936 104.411 94.7972 80.7912 97.4527 70.9579C109.9 24.9245 31.4194 -17.3949 22.5388 15.4551Z" fill="#EDEDED"/>
<path d="M20.929 14.9702L24.2783 10.5378L26.4945 12.2125L23.1452 16.6449L20.929 14.9702Z" fill="#EFD9CB"/>
<path d="M11.3018 27.7217L14.6511 23.2893L16.8673 24.9639L13.518 29.3963L11.3018 27.7217Z" fill="#EFD9CB"/>
<path d="M9.39111 14.0947L11.064 11.8772L15.4991 15.223L13.8262 17.4405L9.39111 14.0947Z" fill="#EFD9CB"/>
<path d="M86.111 85.4159C83.8138 85.4159 81.9443 83.5464 81.9443 81.2492C81.9443 78.952 83.8138 77.0825 86.111 77.0825C88.4082 77.0825 90.2777 78.952 90.2777 81.2492C90.2777 83.5464 88.4082 85.4159 86.111 85.4159ZM86.111 79.8603C85.3443 79.8603 84.7221 80.4825 84.7221 81.2492C84.7221 82.0159 85.3443 82.6381 86.111 82.6381C86.8777 82.6381 87.4999 82.0159 87.4999 81.2492C87.4999 80.4825 86.8777 79.8603 86.111 79.8603Z" fill="#EFD9CB"/>
<path d="M80.8693 44.8604L72.9443 75.8049C72.0888 79.141 68.6749 81.1632 65.3388 80.3077L23.6304 69.6299C23.361 69.5604 23.0999 69.466 22.8638 69.3771C20.1276 68.3049 18.5138 65.4243 19.0304 62.516C19.0443 62.3466 19.086 62.1854 19.1276 62.0243L27.0526 31.0799C27.9082 27.7438 31.3221 25.7215 34.6582 26.5771L76.3665 37.2577C79.7026 38.1104 81.7249 41.5243 80.8693 44.8604Z" fill="#EDEDED"/>
<path d="M23.8916 63.9052C23.9055 63.7358 23.9472 63.5747 23.9888 63.4136L31.9138 32.4663C32.7694 29.1302 36.1833 27.108 39.5194 27.9635L77.5888 37.7135C77.2055 37.5247 76.7972 37.3663 76.3666 37.258L34.6555 26.5747C31.3194 25.7191 27.9055 27.7413 27.0499 31.0774L19.1277 62.0247C19.086 62.1858 19.0444 62.3469 19.0305 62.5163C18.5166 65.4247 20.1305 68.3024 22.8638 69.3774C23.0999 69.4663 23.361 69.5636 23.6305 69.6302L27.3666 70.5858C24.8583 69.408 23.3999 66.6802 23.8916 63.9052Z" fill="#CBCBCB"/>
<path d="M83.3332 28.4717V60.4161C83.3332 63.8606 80.5276 66.6661 77.0831 66.6661H34.0276C33.7498 66.6661 33.472 66.6384 33.222 66.6106C30.3054 66.2495 28.0276 63.8606 27.8054 60.9161C27.7776 60.7495 27.7776 60.5828 27.7776 60.4161V28.4717C27.7776 25.0272 30.5831 22.2217 34.0276 22.2217H77.0831C80.5276 22.2217 83.3332 25.0272 83.3332 28.4717Z" fill="#EDEDED"/>
<path d="M35.4444 60.9161C35.4166 60.7495 35.4166 60.5828 35.4166 60.4161V28.4717C35.4166 25.0272 38.2222 22.2217 41.6666 22.2217H34.7222C31.2777 22.2217 28.4722 25.0272 28.4722 28.4717V60.4161C28.4722 60.5828 28.4722 60.7495 28.4999 60.9161C28.7222 63.8606 30.9999 66.2495 33.9166 66.6106C34.1666 66.6384 34.4444 66.6661 34.7222 66.6661H41.6666C41.3888 66.6661 41.1111 66.6384 40.8611 66.6106C37.9444 66.2495 35.6666 63.8606 35.4444 60.9161Z" fill="#CBCBCB"/>
<path d="M41.6666 41.6663C44.7349 41.6663 47.2222 39.179 47.2222 36.1107C47.2222 33.0425 44.7349 30.5552 41.6666 30.5552C38.5984 30.5552 36.1111 33.0425 36.1111 36.1107C36.1111 39.179 38.5984 41.6663 41.6666 41.6663Z" fill="#AF5B29"/>
<path d="M68.7221 38.3357C66.8332 36.4468 63.7221 36.519 61.8332 38.4079C61.8332 38.4079 56.6943 44.519 51.2249 51.0551L47.8888 47.7218C45.9999 45.8329 42.8888 45.8329 40.9999 47.7218L27.8054 60.9162C28.0276 63.8607 30.3054 66.2496 33.2221 66.6107C33.4721 66.6384 33.7499 66.6662 34.0276 66.6662H38.3499H66.8332H77.0832C80.5276 66.6662 83.3332 63.8607 83.3332 60.4162V55.4384L68.7221 38.3357Z" fill="#AF5B29"/>
<path d="M34.7499 62.9991L47.9443 49.8047C48.2999 49.4491 48.7054 49.1852 49.1304 48.963L47.8888 47.7214C45.9999 45.8325 42.8888 45.8325 40.9999 47.7214L27.8054 60.9158C28.0276 63.8602 30.3054 66.2491 33.2221 66.6102C33.4721 66.638 33.7499 66.6658 34.0276 66.6658H36.3276C35.4388 65.6741 34.8554 64.4047 34.7499 62.9991Z" fill="#7A2F03"/>
<path d="M50.4388 55.127L53.7749 58.4631C59.2443 51.927 68.7777 40.4937 68.7777 40.4937C69.1082 40.1631 69.486 39.9075 69.8777 39.6909L68.7221 38.3381C66.8332 36.4492 63.7221 36.5214 61.8332 38.4103C61.8332 38.4103 53.461 48.4631 48.7832 54.0492C49.386 54.2853 49.9554 54.6409 50.4388 55.127Z" fill="#7A2F03"/>
<path d="M65.8416 83.3327C65.3166 83.3327 64.7805 83.2661 64.2499 83.1272L21.2944 71.6244C17.9805 70.7105 16.0055 67.2827 16.8721 63.9716L21.5944 45.8633L25.6249 46.9161L20.9027 65.0272C20.611 66.1438 21.2749 67.2966 22.386 67.6022L65.3166 79.0994C66.4166 79.3883 67.5582 78.7355 67.8471 77.6383L69.3138 71.7216L73.3582 72.7216L71.886 78.6661C71.1444 81.4799 68.611 83.3327 65.8416 83.3327Z" fill="black"/>
<path d="M77.0831 66.6661H34.0276C30.5804 66.6661 27.7776 63.8634 27.7776 60.4161V28.4717C27.7776 25.0245 30.5804 22.2217 34.0276 22.2217H77.0831C80.5304 22.2217 83.3332 25.0245 83.3332 28.4717V60.4161C83.3332 63.8634 80.5304 66.6661 77.0831 66.6661ZM34.0276 26.3883C32.8776 26.3883 31.9443 27.3217 31.9443 28.4717V60.4161C31.9443 61.5661 32.8776 62.4995 34.0276 62.4995H77.0831C78.2332 62.4995 79.1665 61.5661 79.1665 60.4161V28.4717C79.1665 27.3217 78.2332 26.3883 77.0831 26.3883H34.0276Z" fill="black"/>
<path d="M41.6666 41.6663C38.6028 41.6663 36.1111 39.1746 36.1111 36.1107C36.1111 33.0468 38.6028 30.5552 41.6666 30.5552C44.7305 30.5552 47.2222 33.0468 47.2222 36.1107C47.2222 39.1746 44.7305 41.6663 41.6666 41.6663ZM41.6666 34.7218C40.9 34.7218 40.2778 35.3441 40.2778 36.1107C40.2778 36.8774 40.9 37.4996 41.6666 37.4996C42.4333 37.4996 43.0555 36.8774 43.0555 36.1107C43.0555 35.3441 42.4333 34.7218 41.6666 34.7218Z" fill="black"/>
<path d="M31.3888 63.2216L28.4443 60.2772L40.9999 47.7216C42.8999 45.8216 45.9916 45.8216 47.8888 47.7216L51.2471 51.08L61.5638 38.6966C62.486 37.5911 63.8388 36.9522 65.2749 36.9438C66.7471 37.0438 68.0693 37.5577 68.9999 38.6522L82.8277 54.7855L79.6638 57.4994L65.8304 41.3605C65.6443 41.1438 65.5082 41.2133 65.2971 41.1133C65.1777 41.1133 64.9471 41.1494 64.7638 41.3661L52.986 55.505C52.611 55.955 52.0638 56.2272 51.4805 56.2522C50.8693 56.2938 50.3277 56.0605 49.9138 55.6438L44.9416 50.6716C44.5888 50.3188 44.2971 50.3188 43.9443 50.6716L31.3888 63.2216Z" fill="black"/>
</svg>
