<svg width="40" height="40" viewBox="0 0 40 40" fill="none" xmlns="http://www.w3.org/2000/svg">
<path d="M28.7815 3.46191L29.5672 2.67624L31.1385 4.24759L30.3528 5.03326L28.7815 3.46191Z" fill="#EFD9CB"/>
<path d="M33.2986 7.97949L34.0843 7.19382L35.6556 8.76517L34.8699 9.55084L33.2986 7.97949Z" fill="#EFD9CB"/>
<path d="M33.1021 4.24805L34.6734 2.6767L35.4591 3.46237L33.8877 5.03372L33.1021 4.24805Z" fill="#EFD9CB"/>
<path d="M16.1113 13.6113C16.8784 13.6113 17.5002 12.9894 17.5002 12.2224C17.5002 11.4553 16.8784 10.8335 16.1113 10.8335C15.3442 10.8335 14.7224 11.4553 14.7224 12.2224C14.7224 12.9894 15.3442 13.6113 16.1113 13.6113Z" fill="#AF5B29"/>
<path d="M19.7222 19.9998V18.6109C19.7222 17.3831 18.7278 16.3887 17.5 16.3887H14.7222C13.4944 16.3887 12.5 17.3831 12.5 18.6109V19.9998H19.7222Z" fill="#AF5B29"/>
<path d="M25.5555 30.278C28.1635 30.278 30.2777 28.1637 30.2777 25.5557C30.2777 22.9477 28.1635 20.8335 25.5555 20.8335C22.9475 20.8335 20.8333 22.9477 20.8333 25.5557C20.8333 28.1637 22.9475 30.278 25.5555 30.278Z" fill="#AF5B29"/>
<path d="M17.2224 12.2224C17.2224 12.0113 17.2769 11.8168 17.3613 11.6379C17.1391 11.1657 16.6669 10.8335 16.1113 10.8335C15.3446 10.8335 14.7224 11.4557 14.7224 12.2224C14.7224 12.9891 15.3446 13.6113 16.1113 13.6113C16.6669 13.6113 17.1391 13.2791 17.3613 12.8068C17.2769 12.6279 17.2224 12.4335 17.2224 12.2224Z" fill="#7A2F03"/>
<path d="M17.2222 16.3887H14.7222C13.4944 16.3887 12.5 17.3831 12.5 18.6109V19.9998H15V18.6109C15 17.3831 15.9944 16.3887 17.2222 16.3887Z" fill="#7A2F03"/>
<path d="M23.3332 25.5557C23.3332 23.3835 24.8088 21.5724 26.8055 21.0224C26.4043 20.9124 25.991 20.8335 25.5555 20.8335C22.9477 20.8335 20.8333 22.9479 20.8333 25.5557C20.8333 28.1635 22.9477 30.278 25.5555 30.278C25.991 30.278 26.4043 30.2002 26.8055 30.0891C24.8088 29.5391 23.3332 27.7279 23.3332 25.5557Z" fill="#7A2F03"/>
<path d="M11.1111 21.6665H17.7777V23.3332H11.1111V21.6665Z" fill="black"/>
<path d="M11.1111 25H17.2444V26.6667H11.1111V25Z" fill="black"/>
<path d="M16.1111 14.4444C14.8856 14.4444 13.8889 13.4478 13.8889 12.2222C13.8889 10.9967 14.8856 10 16.1111 10C17.3367 10 18.3334 10.9967 18.3334 12.2222C18.3334 13.4478 17.3367 14.4444 16.1111 14.4444ZM16.1111 11.6667C15.8045 11.6667 15.5556 11.9156 15.5556 12.2222C15.5556 12.5289 15.8045 12.7778 16.1111 12.7778C16.4178 12.7778 16.6667 12.5289 16.6667 12.2222C16.6667 11.9156 16.4178 11.6667 16.1111 11.6667Z" fill="black"/>
<path d="M20.5556 19.9996H18.889V18.6107C18.889 17.8452 18.2656 17.2218 17.5001 17.2218H14.7223C13.9568 17.2218 13.3334 17.8452 13.3334 18.6107V19.9996H11.6667V18.6107C11.6667 16.9252 13.0367 15.5552 14.7223 15.5552H17.5001C19.1856 15.5552 20.5556 16.9252 20.5556 18.6107V19.9996Z" fill="black"/>
<path d="M18.9223 29.9998H9.72231C8.03675 29.9998 6.66675 28.6298 6.66675 26.9443V9.72206C6.66675 8.0365 8.03675 6.6665 9.72231 6.6665H22.5001C24.1857 6.6665 25.5557 8.0365 25.5557 9.72206V17.7998H23.889V9.72206C23.889 8.9565 23.2657 8.33317 22.5001 8.33317H9.72231C8.95675 8.33317 8.33342 8.9565 8.33342 9.72206V26.9443C8.33342 27.7098 8.95675 28.3332 9.72231 28.3332H18.9223V29.9998Z" fill="black"/>
<path d="M25.5556 31.1111C22.4922 31.1111 20 28.6189 20 25.5556C20 22.4922 22.4922 20 25.5556 20C28.6189 20 31.1111 22.4922 31.1111 25.5556C31.1111 28.6189 28.6189 31.1111 25.5556 31.1111ZM25.5556 21.6667C23.4111 21.6667 21.6667 23.4111 21.6667 25.5556C21.6667 27.7 23.4111 29.4444 25.5556 29.4444C27.7 29.4444 29.4444 27.7 29.4444 25.5556C29.4444 23.4111 27.7 21.6667 25.5556 21.6667Z" fill="black"/>
<path d="M27.907 29.0918L29.0855 27.9133L33.6723 32.5001L32.4938 33.6786L27.907 29.0918Z" fill="black"/>
</svg>
