<svg width="100" height="100" viewBox="0 0 100 100" fill="none" xmlns="http://www.w3.org/2000/svg">
<path d="M76.1582 10.8723C56.9499 11.2306 43.5693 1.52509 34.3137 1.70009C25.0582 1.87509 5.71374 7.55842 6.51097 50.1445C7.30819 92.7306 33.5776 98.489 43.761 98.3001C91.436 97.4084 110.18 10.2362 76.1582 10.8723Z" fill="#EDEDED"/>
<path d="M89.9307 13.4502H95.4862V16.228H89.9307V13.4502Z" fill="#EFD9CB"/>
<path d="M83.6807 3.72754H86.4584V9.2831H83.6807V3.72754Z" fill="#EFD9CB"/>
<path d="M43.0556 67.3611C56.4791 67.3611 67.3611 56.4791 67.3611 43.0556C67.3611 29.632 56.4791 18.75 43.0556 18.75C29.632 18.75 18.75 29.632 18.75 43.0556C18.75 56.4791 29.632 67.3611 43.0556 67.3611Z" fill="#EDEDED"/>
<path d="M50.6944 46.8749C50.6944 49.1805 52.5555 50.6944 54.861 50.6944C57.1666 50.6944 59.0277 48.8333 59.0277 46.5277C59.0277 45.7388 58.811 45.0055 58.436 44.3805C57.9472 43.5694 57.9472 42.5416 58.436 41.7277C58.811 41.1027 59.0277 40.3694 59.0277 39.5805C59.0277 37.2749 57.1666 35.4138 54.861 35.4138C52.5555 35.4138 50.6944 36.9277 50.6944 39.2333H35.4166C35.4166 36.9277 33.5555 35.4138 31.2499 35.4138C28.9444 35.4138 27.0833 37.2749 27.0833 39.5805C27.0833 40.3694 27.2999 41.1027 27.6749 41.7277C28.1638 42.5388 28.1638 43.5666 27.6749 44.3805C27.2999 45.0055 27.0833 45.7388 27.0833 46.5277C27.0833 48.8333 28.9444 50.6944 31.2499 50.6944C33.5555 50.6944 35.4166 49.1805 35.4166 46.8749H50.6944Z" fill="#AF5B29"/>
<path d="M34.1388 36.4167C33.2221 37.1667 32.6388 38.3056 32.6388 39.5834C32.6388 40.3612 32.861 41.1112 33.2221 41.7223C33.7221 42.5556 33.7221 43.5556 33.2221 44.389C32.861 45.0001 32.6388 45.7501 32.6388 46.5279C32.6388 47.8056 33.2221 48.9445 34.1388 49.6945C33.3888 50.3334 32.3888 50.6945 31.2499 50.6945C28.9444 50.6945 27.0833 48.8334 27.0833 46.5279C27.0833 45.7501 27.3055 45.0001 27.6666 44.389C28.1666 43.5556 28.1666 42.5556 27.6666 41.7223C27.3055 41.1112 27.0833 40.3612 27.0833 39.5834C27.0833 37.2779 28.9444 35.4167 31.2499 35.4167C32.3888 35.4167 33.3888 35.7779 34.1388 36.4167Z" fill="#7A2F03"/>
<path d="M45.8333 67.1944C44.9167 67.3056 44 67.3611 43.0556 67.3611C29.6389 67.3611 18.75 56.4722 18.75 43.0556C18.75 29.6389 29.6389 18.75 43.0556 18.75C44 18.75 44.9167 18.8056 45.8333 18.9167C33.7222 20.2778 24.3056 30.5833 24.3056 43.0556C24.3056 55.5278 33.7222 65.8333 45.8333 67.1944Z" fill="#CBCBCB"/>
<path d="M43.0556 69.4445C28.5056 69.4445 16.6667 57.6056 16.6667 43.0556C16.6667 28.5056 28.5056 16.6667 43.0556 16.6667C57.6056 16.6667 69.4445 28.5056 69.4445 43.0556C69.4445 57.6056 57.6056 69.4445 43.0556 69.4445ZM43.0556 20.8334C30.8029 20.8334 20.8334 30.8029 20.8334 43.0556C20.8334 55.3084 30.8029 65.2779 43.0556 65.2779C55.3084 65.2779 65.2779 55.3084 65.2779 43.0556C65.2779 30.8029 55.3084 20.8334 43.0556 20.8334Z" fill="black"/>
<path d="M59.2463 62.2073L62.1922 59.2614L82.707 79.7762L79.7611 82.7221L59.2463 62.2073Z" fill="black"/>
<path d="M54.8611 52.7777C52.0833 52.7777 49.8361 51.2333 48.9833 48.9583H37.1278C36.275 51.2333 34.0278 52.7777 31.25 52.7777C27.8028 52.7777 25 49.9749 25 46.5277C25 45.3888 25.3083 44.2749 25.8889 43.3083C25.9806 43.1555 25.9806 42.9555 25.8917 42.8083C25.3083 41.836 25 40.7221 25 39.5833C25 36.136 27.8028 33.3333 31.25 33.3333C34.0278 33.3333 36.275 34.8777 37.1278 37.1527H48.9833C49.8361 34.8777 52.0833 33.3333 54.8611 33.3333C58.3083 33.3333 61.1111 36.136 61.1111 39.5833C61.1111 40.7221 60.8028 41.836 60.2222 42.8027C60.1306 42.9555 60.1306 43.1555 60.2194 43.3027C60.8028 44.2749 61.1111 45.3888 61.1111 46.5277C61.1111 49.9749 58.3083 52.7777 54.8611 52.7777ZM35.4167 44.7916H50.6944C51.8444 44.7916 52.7778 45.7249 52.7778 46.8749C52.7778 48.1555 53.9 48.611 54.8611 48.611C56.0111 48.611 56.9444 47.6777 56.9444 46.5277C56.9444 46.1388 56.8444 45.7777 56.65 45.4527C55.7583 43.9749 55.7583 42.1333 56.6528 40.6527C56.8444 40.3333 56.9444 39.9721 56.9444 39.5833C56.9444 38.4333 56.0111 37.4999 54.8611 37.4999C53.9 37.4999 52.7778 37.9555 52.7778 39.236C52.7778 40.386 51.8444 41.3194 50.6944 41.3194H35.4167C34.2667 41.3194 33.3333 40.386 33.3333 39.236C33.3333 37.9555 32.2111 37.4999 31.25 37.4999C30.1 37.4999 29.1667 38.4333 29.1667 39.5833C29.1667 39.9721 29.2667 40.3333 29.4611 40.6583C30.3528 42.136 30.3528 43.9777 29.4583 45.4583C29.2667 45.7777 29.1667 46.1388 29.1667 46.5277C29.1667 47.6777 30.1 48.611 31.25 48.611C32.2111 48.611 33.3333 48.1555 33.3333 46.8749C33.3333 45.7249 34.2667 44.7916 35.4167 44.7916Z" fill="black"/>
</svg>
