<svg width="100" height="100" viewBox="0 0 100 100" fill="none" xmlns="http://www.w3.org/2000/svg">
<path d="M23.2693 11.5751C42.4832 11.5751 55.6776 1.62231 64.936 1.62231C74.1943 1.62231 93.6387 6.94454 93.6387 49.5362C93.6387 92.1279 67.4804 98.3779 57.2971 98.3779C9.61097 98.3807 -10.7585 11.5751 23.2693 11.5751Z" fill="#EDEDED"/>
<path d="M65.2778 48.6112V49.6667C65.2778 50.7223 64.6944 51.6945 63.75 52.1667L56.6111 55.7223C55.25 56.3889 54.6944 58.0278 55.3333 59.4167L62.1111 73.5556C55.6111 79.0001 50 81.9445 50 81.9445C50 81.9445 42.4722 78.0001 34.75 70.7778L35.1667 70.0834C38.5 64.1945 40.2778 57.5556 40.2778 50.7778V45.8334C40.2778 42.7778 42.7778 40.2778 45.8333 40.2778H51.3889C53.1389 40.2778 54.7778 41.1112 55.8333 42.5001L56.6667 43.6112C57.7222 45.0001 59.3611 45.8334 61.1111 45.8334H62.5C64.0278 45.8334 65.2778 47.0834 65.2778 48.6112Z" fill="#AF5B29"/>
<path d="M81.9446 37.7221C81.9446 53.6666 71.139 66.0277 62.1112 73.5555L55.3334 59.4166C54.6946 58.0277 55.2501 56.3888 56.6112 55.7221L63.7501 52.1666C64.6946 51.6944 65.2779 50.7221 65.2779 49.6666V48.611C65.2779 47.0833 64.0279 45.8333 62.5001 45.8333H61.1112C59.3612 45.8333 57.7223 44.9999 56.6668 43.611L55.8334 42.4999C54.7779 41.111 53.139 40.2777 51.389 40.2777H45.8334C42.7779 40.2777 40.2779 42.7777 40.2779 45.8333V50.7777C40.2779 57.5555 38.5001 64.1944 35.1668 70.0833L34.7501 70.7777C26.5279 63.1388 18.0557 51.8333 18.0557 37.7221C18.0557 28.4166 25.6112 20.8333 34.889 20.8333C41.5001 20.8333 47.2501 24.3333 50.0001 29.9999C52.7501 24.3333 58.5001 20.8333 65.1112 20.8333C74.389 20.8333 81.9446 28.4166 81.9446 37.7221Z" fill="#EDEDED"/>
<path d="M48.6112 40.2778L47.2223 55.6945C47.1389 56.3889 46.5556 56.9445 45.8334 56.9445C45.2778 56.9445 44.8056 56.6112 44.5834 56.1667L40.2778 47.2223V45.8334C40.2778 42.7778 42.7778 40.2778 45.8334 40.2778H48.6112Z" fill="#AF5B29"/>
<path d="M23.6112 37.7221C23.6112 49.7221 29.7501 59.7221 36.639 67.111C36.2223 68.111 35.7223 69.111 35.1668 70.0832L34.7501 70.7777C26.5279 63.1388 18.0557 51.8332 18.0557 37.7221C18.0557 28.4166 25.6112 20.8333 34.889 20.8333C35.8612 20.8333 36.8057 20.9166 37.7223 21.0555C29.7223 22.361 23.6112 29.3333 23.6112 37.7221Z" fill="#CBCBCB"/>
<path d="M52.7778 80.3056C51.0556 81.389 50 81.9445 50 81.9445C50 81.9445 42.4722 78.0001 34.75 70.7778L35.1667 70.0834C38.5 64.1945 40.2778 57.5556 40.2778 50.7778V45.8334C40.2778 42.7778 42.7778 40.2778 45.8333 40.2778H51.3889C48.3333 40.2778 45.8333 42.7778 45.8333 45.8334V50.7778C45.8333 57.5556 44.0556 64.1945 40.7222 70.0834L40.3056 70.7778C45.1389 75.2778 49.8889 78.5278 52.7778 80.3056Z" fill="#7A2F03"/>
<path d="M45.8334 45.8334V47.2223L47.6389 51L47.2223 55.6945C47.1389 56.3889 46.5556 56.9445 45.8334 56.9445C45.2778 56.9445 44.8056 56.6112 44.5834 56.1667L40.2778 47.2223V45.8334C40.2778 42.7778 42.7778 40.2778 45.8334 40.2778H48.6112L48.5278 41.0556C46.9167 42.0556 45.8334 43.8334 45.8334 45.8334Z" fill="#7A2F03"/>
<path d="M59.9252 73.8138L53.4641 60.3054C52.3279 57.9304 53.3196 55.0388 55.678 53.861L62.8113 50.2943C63.0474 50.1777 63.1946 49.9388 63.1946 49.6721V48.611C63.1946 48.2277 62.8835 47.9166 62.5002 47.9166H61.1113C58.7196 47.9166 56.4335 46.7749 55.0002 44.861L54.1668 43.7527C53.5168 42.8804 52.478 42.3638 51.3891 42.3638H45.8335C43.9196 42.3638 42.3613 43.9221 42.3613 45.836V50.786C42.3613 57.9055 40.4946 64.9332 36.9641 71.1138L36.5335 71.8666L32.9141 69.7999L33.3446 69.0471C36.5196 63.4943 38.1946 57.1805 38.1946 50.786V45.8332C38.1946 41.6193 41.6196 38.1943 45.8335 38.1943H51.3891C53.7807 38.1943 56.0668 39.336 57.5002 41.2499L58.3335 42.361C58.9835 43.2332 60.0224 43.7499 61.1113 43.7499H62.5002C65.1807 43.7499 67.3613 45.9304 67.3613 48.611V49.6721C67.3613 51.5249 66.3307 53.1916 64.6724 54.0193L57.5391 57.586C57.203 57.7555 57.0613 58.1666 57.2252 58.5082L63.6863 72.0166L59.9252 73.8138Z" fill="black"/>
<path d="M45.8335 59.0278C44.5057 59.0278 43.2807 58.2583 42.7029 57.0639L38.4001 48.125L42.1557 46.3194L45.3696 52.9916L46.5363 40.0889L50.6863 40.4639L49.2918 55.8694C49.1279 57.6722 47.639 59.0278 45.8335 59.0278Z" fill="black"/>
<path d="M49.9999 84.0278C49.6666 84.0278 49.3333 83.95 49.0277 83.7889C47.6805 83.0778 15.9722 66.0722 15.9722 37.7306C15.9722 27.2639 24.4555 18.75 34.8805 18.75C41.0083 18.75 46.5305 21.4722 49.9999 26.0361C53.4694 21.4722 58.9916 18.75 65.1194 18.75C75.5444 18.75 84.0277 27.2639 84.0277 37.7306C84.0277 66.0722 52.3194 83.0778 50.9722 83.7889C50.6666 83.95 50.3333 84.0278 49.9999 84.0278ZM34.8805 22.9167C26.7527 22.9167 20.1388 29.5639 20.1388 37.7306C20.1388 60.9472 44.7583 76.5083 49.9999 79.5556C55.2361 76.5028 79.8611 60.9139 79.8611 37.7306C79.8611 29.5639 73.2472 22.9167 65.1194 22.9167C59.3361 22.9167 54.2611 25.9778 51.8722 30.9056C51.1777 32.3444 48.8166 32.3444 48.1222 30.9056C45.7388 25.9778 40.6638 22.9167 34.8805 22.9167Z" fill="black"/>
<path d="M21.2346 14.3296L25.163 10.4012L27.1272 12.3654L23.1988 16.2938L21.2346 14.3296Z" fill="#EFD9CB"/>
<path d="M9.94214 25.623L13.8705 21.6947L15.8347 23.6589L11.9063 27.5872L9.94214 25.623Z" fill="#EFD9CB"/>
<path d="M9.94458 11.8728L11.9088 9.90862L15.8371 13.837L13.873 15.8012L9.94458 11.8728Z" fill="#EFD9CB"/>
</svg>
