<svg width="100" height="100" viewBox="0 0 100 100" fill="none" xmlns="http://www.w3.org/2000/svg">
<path d="M21.9082 88.4249C41.1221 88.4249 54.3166 98.3777 63.5749 98.3777C72.8332 98.3777 92.2777 93.0555 92.2777 50.4638C92.2777 7.87216 66.1193 1.61938 55.936 1.61938C8.24989 1.61938 -12.1196 88.4249 21.9082 88.4249Z" fill="#EDEDED"/>
<path d="M52.5471 32C52.5471 30.8954 51.6517 30 50.5471 30C49.4425 30 48.5471 30.8954 48.5471 32L52.5471 32ZM48.5471 69C48.5471 70.1046 49.4425 71 50.5471 71C51.6517 71 52.5471 70.1046 52.5471 69L48.5471 69ZM48.5471 32L48.5471 34.3125L52.5471 34.3125L52.5471 32L48.5471 32ZM48.5471 38.9375L48.5471 43.5625L52.5471 43.5625L52.5471 38.9375L48.5471 38.9375ZM48.5471 48.1875L48.5471 52.8125L52.5471 52.8125L52.5471 48.1875L48.5471 48.1875ZM48.5471 57.4375L48.5471 62.0625L52.5471 62.0625L52.5471 57.4375L48.5471 57.4375ZM48.5471 66.6875L48.5471 69L52.5471 69L52.5471 66.6875L48.5471 66.6875Z" fill="black"/>
<path d="M86.6033 42.8572V43.8561C86.6033 44.855 86.0513 45.775 85.1576 46.2218L78.2443 49.6653C77.0352 50.2699 76.4832 51.7156 76.9826 52.9773L81.3461 65.2003H57.6887L58.1093 63.1763C61.2636 57.6037 62.9459 51.3213 62.9459 44.9075V41.5429L67.0202 50.007C67.2305 50.4276 67.6774 50.743 68.2031 50.743C68.8865 50.743 69.4385 50.2173 69.5174 49.5602L70.8317 34.9714H73.4603C75.1163 34.9714 76.6672 35.76 77.6661 37.0743L78.4546 38.1258C79.4535 39.4401 81.0044 40.2286 82.6604 40.2286H83.9747C85.4204 40.2286 86.6033 41.4115 86.6033 42.8572Z" fill="#AF5B29"/>
<path d="M70.8318 34.9714L69.5175 49.5601C69.4387 50.2173 68.8867 50.743 68.2032 50.743C67.6775 50.743 67.2307 50.4276 67.0204 50.007L62.946 41.5429V40.2286C62.946 37.3372 65.3118 34.9714 68.2032 34.9714H70.8318Z" fill="#AF5B29"/>
<path d="M67.73 50.6379C66.7732 56.7783 64.7781 60.7738 62.1784 65.2003H57.4785L58.1094 63.1763C61.2637 57.6037 62.946 51.3214 62.946 44.9076V41.543L67.0203 50.0071C67.1518 50.2962 67.4146 50.5328 67.73 50.6379Z" fill="#7A2F03"/>
<path d="M68.2032 40.2286V41.5429L69.9118 45.1178L69.5175 49.5601C69.4387 50.2173 68.8867 50.743 68.2032 50.743C67.6775 50.743 67.2307 50.4276 67.0204 50.007L62.946 41.5429V40.2286C62.946 37.3372 65.3118 34.9714 68.2032 34.9714H70.8318L70.753 35.7074C69.2284 36.6537 68.2032 38.336 68.2032 40.2286Z" fill="#7A2F03"/>
<path d="M58.4222 66.5751L54.9998 64.6194L56.385 62.1932C59.3895 56.9386 60.9746 50.9665 60.9746 44.9128V40.2286C60.9746 36.2411 64.2156 33 68.2032 33H73.4604C75.7236 33 77.8843 34.0804 79.2433 35.8915L80.0319 36.9429C80.647 37.7656 81.6301 38.2572 82.6605 38.2572H83.9748C86.5114 38.2572 88.5748 40.3206 88.5748 42.8572V43.8614C88.5748 45.6146 87.5996 47.1918 86.033 47.9751L79.1329 51.4238C78.8306 51.5763 78.6913 51.9417 78.8175 52.2545L83.9091 64.9822L80.2474 66.4463L75.1558 53.7186C74.2753 51.5185 75.2452 48.9582 77.3665 47.8963L84.2666 44.4449C84.49 44.3345 84.6293 44.1085 84.6293 43.8561V42.8572C84.6293 42.4945 84.3349 42.2001 83.9722 42.2001H82.6605C80.3973 42.2001 78.2366 41.1197 76.8776 39.3086L76.089 38.2572C75.4739 37.4344 74.4908 36.9429 73.4604 36.9429H68.2032C66.3921 36.9429 64.9175 38.4175 64.9175 40.2286V44.9128C64.9175 51.6499 63.151 58.3003 59.8101 64.1489L58.4222 66.5751Z" fill="black"/>
<path d="M68.2031 52.7146C66.9467 52.7146 65.7874 51.9838 65.2433 50.8535L61.1716 42.4L64.7255 40.6887L67.7668 47.0026L68.8708 34.7954L72.7979 35.1503L71.4784 49.7285C71.3233 51.4292 69.9143 52.7146 68.2031 52.7146Z" fill="black"/>
<path d="M14.9715 42.8572V43.8561C14.9715 44.8549 15.5235 45.7749 16.4172 46.2218L23.3304 49.6653C24.5396 50.2698 25.0916 51.7156 24.5921 52.9773L20.2287 65.2002H43.886L43.4654 63.1762C40.3111 57.6036 38.6288 51.3213 38.6288 44.9075V41.5429L34.5545 50.007C34.3442 50.4276 33.8973 50.743 33.3716 50.743C32.6882 50.743 32.1362 50.2173 32.0573 49.5601L30.743 34.9714H28.1144C26.4584 34.9714 24.9076 35.76 23.9087 37.0743L23.1201 38.1257C22.1213 39.44 20.5704 40.2286 18.9144 40.2286H17.6001C16.1544 40.2286 14.9715 41.4115 14.9715 42.8572Z" fill="#AF5B29"/>
<path d="M30.7431 34.9714L32.0574 49.5601C32.1363 50.2173 32.6883 50.743 33.3717 50.743C33.8974 50.743 34.3443 50.4275 34.5546 50.007L38.6289 41.5429V40.2286C38.6289 37.3372 36.2632 34.9714 33.3717 34.9714H30.7431Z" fill="#AF5B29"/>
<path d="M33.8447 50.6379C34.8015 56.7783 36.7966 60.7737 39.3963 65.2003H44.0962L43.4653 63.1763C40.311 57.6037 38.6287 51.3213 38.6287 44.9076V41.543L34.5544 50.007C34.423 50.2962 34.1601 50.5327 33.8447 50.6379Z" fill="#7A2F03"/>
<path d="M33.3717 40.2286V41.5429L31.6631 45.1178L32.0574 49.5601C32.1363 50.2173 32.6883 50.743 33.3717 50.743C33.8974 50.743 34.3443 50.4275 34.5546 50.007L38.6289 41.5429V40.2286C38.6289 37.3372 36.2632 34.9714 33.3717 34.9714H30.7431L30.822 35.7074C32.3466 36.6537 33.3717 38.336 33.3717 40.2286Z" fill="#7A2F03"/>
<path d="M43.1525 66.575L46.575 64.6193L45.1897 62.1931C42.1852 56.9386 40.6002 50.9664 40.6002 44.9128V40.2286C40.6002 36.2411 37.3591 33 33.3715 33H28.1144C25.8511 33 23.6904 34.0804 22.3315 35.8915L21.5429 36.9429C20.9278 37.7656 19.9447 38.2572 18.9143 38.2572H17.6C15.0634 38.2572 13 40.3206 13 42.8572V43.8613C13 45.6146 13.9752 47.1918 15.5418 47.9751L22.4419 51.4238C22.7442 51.5763 22.8835 51.9416 22.7573 52.2544L17.6657 64.9821L21.3273 66.4462L26.4189 53.7186C27.2995 51.5184 26.3296 48.9582 24.2083 47.8962L17.3082 44.4449C17.0848 44.3345 16.9455 44.1084 16.9455 43.8561V42.8572C16.9455 42.4945 17.2399 42.2001 17.6026 42.2001H18.9143C21.1775 42.2001 23.3382 41.1197 24.6972 39.3086L25.4858 38.2572C26.1009 37.4344 27.084 36.9429 28.1144 36.9429H33.3715C35.1826 36.9429 36.6573 38.4175 36.6573 40.2286V44.9128C36.6573 51.6499 38.4237 58.3002 41.7646 64.1488L43.1525 66.575Z" fill="black"/>
<path d="M33.3716 52.7145C34.6281 52.7145 35.7873 51.9838 36.3314 50.8535L40.4031 42.3999L36.8492 40.6887L33.8079 47.0026L32.7039 34.7954L28.7768 35.1503L30.0964 49.7284C30.2515 51.4291 31.6604 52.7145 33.3716 52.7145Z" fill="black"/>
<path d="M84.028 23.6112C81.7308 23.6112 79.8613 21.7417 79.8613 19.4445C79.8613 17.1473 81.7308 15.2778 84.028 15.2778C86.3252 15.2778 88.1947 17.1473 88.1947 19.4445C88.1947 21.7417 86.3252 23.6112 84.028 23.6112ZM84.028 18.0556C83.2613 18.0556 82.6391 18.6778 82.6391 19.4445C82.6391 20.2112 83.2613 20.8334 84.028 20.8334C84.7947 20.8334 85.4169 20.2112 85.4169 19.4445C85.4169 18.6778 84.7947 18.0556 84.028 18.0556Z" fill="#EFD9CB"/>
</svg>
