<svg width="100" height="100" viewBox="0 0 100 100" fill="none" xmlns="http://www.w3.org/2000/svg">
<path d="M11.5751 76.7305C11.5751 57.5166 1.62231 44.3222 1.62231 35.0639C1.62231 25.8055 6.94454 6.36108 49.5362 6.36108C92.1279 6.36108 98.3779 32.5194 98.3779 42.7028C98.3807 90.3889 11.5751 110.758 11.5751 76.7305Z" fill="#EDEDED"/>
<path d="M81.9446 50.0001C81.9446 50.7779 81.3334 51.389 80.5557 51.389H73.6112V77.7779C73.6112 80.0696 71.7362 81.9446 69.4446 81.9446H30.5557C28.264 81.9446 26.389 80.0696 26.389 77.7779V51.389H19.4446C18.6668 51.389 18.0557 50.7779 18.0557 50.0001C18.0557 49.6112 18.2223 49.2501 18.4723 49.0001L50.0001 18.0557L62.5001 30.3334V20.8334H73.6112V41.2223L81.5279 49.0001C81.7779 49.2501 81.9446 49.6112 81.9446 50.0001Z" fill="#EDEDED"/>
<path d="M65.2778 48.6112V49.6667C65.2778 50.7223 64.6944 51.6945 63.75 52.1667L56.4444 55.8056C55.1667 56.4445 54.5833 57.9723 55.1111 59.3056L61.6889 72.2223H34.375L35.1667 70.0834C38.5 64.1945 40.2778 57.5556 40.2778 50.7778V47.2223L44.5833 56.1667C44.8056 56.6112 45.2778 56.9445 45.8333 56.9445C46.5556 56.9445 47.1389 56.3889 47.2222 55.6945L48.6111 40.2778H51.3889C53.1389 40.2778 54.7778 41.1112 55.8333 42.5001L56.6667 43.6112C57.7222 45.0001 59.3611 45.8334 61.1111 45.8334H62.5C64.0278 45.8334 65.2778 47.0834 65.2778 48.6112Z" fill="#AF5B29"/>
<path d="M48.6112 40.2778L47.2223 55.6945C47.1389 56.3889 46.5556 56.9445 45.8334 56.9445C45.2778 56.9445 44.8056 56.6112 44.5834 56.1667L40.2778 47.2223V45.8334C40.2778 42.7778 42.7778 40.2778 45.8334 40.2778H48.6112Z" fill="#AF5B29"/>
<path d="M25.0001 51.389H19.4446C18.6668 51.389 18.0557 50.7779 18.0557 50.0001C18.0557 49.6112 18.2223 49.2501 18.4723 49.0001L50.0001 18.0557L52.7779 20.7779L24.0279 49.0001C23.7779 49.2501 23.6112 49.6112 23.6112 50.0001C23.6112 50.7779 24.2223 51.389 25.0001 51.389Z" fill="#CBCBCB"/>
<path d="M36.1109 81.9445H30.5553C28.2498 81.9445 26.3887 80.0833 26.3887 77.7778V51.3889H31.9442V77.7778C31.9442 80.0833 33.8053 81.9445 36.1109 81.9445Z" fill="#CBCBCB"/>
<path d="M45.5833 56.8333C44.425 64.2666 41.7972 68.3861 39.9306 72.2222H34.375L35.4167 70.0833C38.75 64.1944 40.5278 57.5555 40.5278 50.7777V47.2222L44.8333 56.1666C44.9722 56.4722 45.25 56.7222 45.5833 56.8333Z" fill="#7A2F03"/>
<path d="M45.8334 45.8334V47.2223L47.6389 51.0001L47.2223 55.6945C47.1389 56.3889 46.5556 56.9445 45.8334 56.9445C45.2778 56.9445 44.8056 56.6112 44.5834 56.1667L40.2778 47.2223V45.8334C40.2778 42.7778 42.7778 40.2778 45.8334 40.2778H48.6112L48.5278 41.0556C46.9167 42.0556 45.8334 43.8334 45.8334 45.8334Z" fill="#7A2F03"/>
<path d="M69.4444 84.0278H30.5555C27.1111 84.0278 24.3055 81.2223 24.3055 77.7778V53.4722H19.4444C17.5305 53.4722 15.9722 51.9139 15.9722 50C15.9722 49.075 16.3499 48.1695 17.0083 47.5195L48.5416 16.5695C49.3499 15.775 50.6527 15.775 51.4611 16.5695L60.4194 25.3667V20.8334C60.4194 19.6834 61.3527 18.75 62.5027 18.75H73.6138C74.7638 18.75 75.6972 19.6834 75.6972 20.8334V40.3472L82.9888 47.5139C83.6527 48.1695 84.0305 49.075 84.0305 50C84.0305 51.9139 82.4722 53.4722 80.5583 53.4722H75.6972V77.7778C75.6944 81.2223 72.8888 84.0278 69.4444 84.0278ZM21.1361 49.3056H26.3888C27.5388 49.3056 28.4722 50.2389 28.4722 51.3889V77.7778C28.4722 78.925 29.4083 79.8611 30.5555 79.8611H69.4444C70.5916 79.8611 71.5277 78.925 71.5277 77.7778V51.3889C71.5277 50.2389 72.4611 49.3056 73.6111 49.3056H78.8666L72.1527 42.7084C71.7527 42.3167 71.5277 41.7806 71.5277 41.2222V22.9167H64.5833V30.3334C64.5833 31.1722 64.0777 31.9306 63.3055 32.2528C62.5277 32.5778 61.6361 32.4056 61.0416 31.8195L49.9999 20.975L21.1361 49.3056Z" fill="black"/>
<path d="M36.5306 71.8665L32.9111 69.7999L33.3417 69.0471C36.5167 63.4943 38.1917 57.1804 38.1917 50.786V45.8332C38.1917 41.6193 41.6167 38.1943 45.8306 38.1943H51.3861C53.7778 38.1943 56.0639 39.336 57.4972 41.2499L58.3334 42.361C58.9834 43.2332 60.0222 43.7499 61.1111 43.7499H62.5C65.1806 43.7499 67.3611 45.9304 67.3611 48.611V49.6721C67.3611 51.5249 66.3306 53.1916 64.6722 54.0193L57.5806 57.5638C57.2389 57.736 57.1 58.1527 57.2722 58.4971L62.975 69.8999L59.2472 71.761L53.5445 60.3582C52.3445 57.9638 53.3222 55.036 55.7195 53.836L62.8111 50.2916C63.0472 50.1749 63.1945 49.936 63.1945 49.6693V48.611C63.1945 48.2277 62.8834 47.9166 62.5 47.9166H61.1111C58.7195 47.9166 56.4333 46.7749 55 44.861L54.1667 43.7527C53.5167 42.8804 52.4778 42.3638 51.3889 42.3638H45.8334C43.9195 42.3638 42.3611 43.9221 42.3611 45.836V50.786C42.3611 57.9054 40.4945 64.9332 36.9639 71.1138L36.5306 71.8665Z" fill="black"/>
<path d="M45.8335 59.0278C44.5057 59.0278 43.2807 58.2583 42.7029 57.0639L38.4001 48.125L42.1557 46.3194L45.3696 52.9916L46.5363 40.0889L50.6863 40.4639L49.2918 55.8694C49.1279 57.6722 47.639 59.0278 45.8335 59.0278Z" fill="black"/>
<path d="M88.8888 39.5833C86.5916 39.5833 84.7222 37.7139 84.7222 35.4167C84.7222 33.1194 86.5916 31.25 88.8888 31.25C91.1861 31.25 93.0555 33.1194 93.0555 35.4167C93.0555 37.7139 91.1861 39.5833 88.8888 39.5833ZM88.8888 34.0278C88.1249 34.0278 87.4999 34.65 87.4999 35.4167C87.4999 36.1833 88.1249 36.8056 88.8888 36.8056C89.6527 36.8056 90.2777 36.1833 90.2777 35.4167C90.2777 34.65 89.6527 34.0278 88.8888 34.0278Z" fill="#EFD9CB"/>
</svg>
