<svg width="40" height="40" viewBox="0 0 40 40" fill="none" xmlns="http://www.w3.org/2000/svg">
<path fill-rule="evenodd" clip-rule="evenodd" d="M29.9526 32.9175L32.0992 33.4927L31.8116 34.5659L29.665 33.9908L29.9526 32.9175Z" fill="#EFD9CB"/>
<path fill-rule="evenodd" clip-rule="evenodd" d="M28.3047 34.7763L27.7295 36.9229L26.6562 36.6353L27.2315 34.4888L28.3047 34.7763Z" fill="#EFD9CB"/>
<path fill-rule="evenodd" clip-rule="evenodd" d="M19.5313 9.4445C17.2302 9.4445 15.3647 11.3099 15.3647 13.6112C15.3647 15.9124 17.2302 17.7778 19.5313 17.7778C21.8326 17.7778 23.698 15.9124 23.698 13.6112C23.698 11.3099 21.8326 9.4445 19.5313 9.4445ZM13.698 13.6112C13.698 10.3895 16.3097 7.77783 19.5313 7.77783C22.753 7.77783 25.3647 10.3895 25.3647 13.6112C25.3647 16.8328 22.753 19.4445 19.5313 19.4445C16.3097 19.4445 13.698 16.8328 13.698 13.6112Z" fill="black"/>
<path fill-rule="evenodd" clip-rule="evenodd" d="M17.0511 23.5736L16.2256 23.6883C14.0135 23.9957 11.8424 24.688 9.81504 25.7654C9.75784 25.7957 9.72209 25.8553 9.72209 25.9201V29.9999C9.72209 30.1533 9.84645 30.2776 9.99986 30.2776H16.9443V31.9443H9.99986C8.92598 31.9443 8.05542 31.0737 8.05542 29.9999V25.9201C8.05542 25.2389 8.43141 24.6133 9.03294 24.2936C11.2349 23.1235 13.5933 22.3714 15.9963 22.0375L16.8216 21.9229L17.0511 23.5736Z" fill="black"/>
<path fill-rule="evenodd" clip-rule="evenodd" d="M28.1468 25.2027C27.9736 25.053 27.7464 24.9812 27.5185 25.0042C27.2907 25.0272 27.0824 25.1429 26.9425 25.3241L25.1413 27.6574L23.4685 26.2128C23.1812 25.9647 22.7625 25.942 22.4502 26.1578L19.5262 28.178C19.3009 28.3337 19.1665 28.5899 19.1665 28.8637V30.2778C19.1665 31.3516 20.0371 32.2222 21.111 32.2222H29.9998C31.0737 32.2222 31.9443 31.3516 31.9443 30.2778V28.8637C31.9443 28.6214 31.839 28.3912 31.6556 28.233L28.1468 25.2027Z" fill="#AF5B29"/>
<path fill-rule="evenodd" clip-rule="evenodd" d="M27.5185 25.0042C27.7464 24.9812 27.9736 25.053 28.1468 25.2027L28.8138 25.7787L27.3635 27.6574L26.0302 26.506L26.9425 25.3241C27.0824 25.1429 27.2907 25.0272 27.5185 25.0042ZM23.9682 26.6443L23.4685 26.2128C23.1812 25.9647 22.7625 25.942 22.4502 26.1578L19.5262 28.178C19.3009 28.3337 19.1665 28.5899 19.1665 28.8637V30.2778C19.1665 31.3516 20.0371 32.2222 21.1109 32.2222H23.3332C22.2593 32.2222 21.3887 31.3516 21.3887 30.2778V28.8637C21.3887 28.5899 21.5232 28.3337 21.7484 28.178L23.9682 26.6443Z" fill="#7A2F03"/>
<path fill-rule="evenodd" clip-rule="evenodd" d="M25.5555 24.1663C25.5555 24.6266 25.1824 24.9997 24.7222 24.9997H24.4444C23.9842 24.9997 23.6111 24.6266 23.6111 24.1663C23.6111 23.7061 23.9842 23.333 24.4444 23.333H24.7222C25.1824 23.333 25.5555 23.7061 25.5555 24.1663Z" fill="#AF5B29"/>
<path fill-rule="evenodd" clip-rule="evenodd" d="M19.1665 22.5001C19.1665 21.4262 20.0371 20.5557 21.111 20.5557H29.9998C31.0737 20.5557 31.9443 21.4262 31.9443 22.5001V30.2779C31.9443 31.3518 31.0737 32.2223 29.9998 32.2223H21.111C20.0371 32.2223 19.1665 31.3518 19.1665 30.2779V22.5001ZM21.111 22.2223C20.9575 22.2223 20.8332 22.3467 20.8332 22.5001V30.2779C20.8332 30.4313 20.9575 30.5557 21.111 30.5557H29.9998C30.1533 30.5557 30.2776 30.4313 30.2776 30.2779V22.5001C30.2776 22.3467 30.1533 22.2223 29.9998 22.2223H21.111Z" fill="black"/>
<path fill-rule="evenodd" clip-rule="evenodd" d="M27.5185 25.0042C27.7464 24.9812 27.9736 25.053 28.1468 25.2027L31.6556 28.233C31.839 28.3912 31.9443 28.6214 31.9443 28.8637V30.2778C31.9443 31.3516 31.0737 32.2222 29.9998 32.2222H21.111C20.0371 32.2222 19.1665 31.3516 19.1665 30.2778V28.8637C19.1665 28.5899 19.3009 28.3337 19.5262 28.178L22.4502 26.1578C22.7625 25.942 23.1812 25.9647 23.4685 26.2128L25.1413 27.6574L26.9425 25.3241C27.0824 25.1429 27.2907 25.0272 27.5185 25.0042ZM27.7238 27.0394L25.9226 29.3729C25.7827 29.5541 25.5744 29.6698 25.3466 29.6928C25.1188 29.7158 24.8916 29.644 24.7183 29.4943L22.8671 27.8955L20.8332 29.3008V30.2778C20.8332 30.4312 20.9575 30.5555 21.111 30.5555H29.9998C30.1533 30.5555 30.2776 30.4312 30.2776 30.2778V29.245L27.7238 27.0394Z" fill="black"/>
<path fill-rule="evenodd" clip-rule="evenodd" d="M25.5553 24.9997H23.6108V23.333H25.5553V24.9997Z" fill="black"/>
</svg>
