<svg width="40" height="40" viewBox="0 0 40 40" fill="none" xmlns="http://www.w3.org/2000/svg">
<path d="M36.657 6.01025L37.4427 5.22458L39.014 6.79593L38.2283 7.5816L36.657 6.01025Z" fill="#EFD9CB"/>
<path d="M32.1321 1.48486L32.9178 0.699189L34.4891 2.27054L33.7034 3.05621L32.1321 1.48486Z" fill="#EFD9CB"/>
<path d="M36.8542 2.27881L38.4256 0.70746L39.2113 1.49313L37.6399 3.06448L36.8542 2.27881Z" fill="#EFD9CB"/>
<path d="M16.0443 7.77783H14.2443C12.4554 7.77783 11.011 9.22228 11.011 11.0112V11.6445L13.5999 16.7334C13.7332 17.0223 14.0332 17.2223 14.3665 17.2223C14.811 17.2223 15.1888 16.8778 15.2221 16.4445L16.0443 7.77783Z" fill="#AF5B29"/>
<path d="M26.6668 32.5002C26.6668 32.5002 32.5002 29.9213 32.5002 24.7624C32.5002 22.6991 32.5002 20.6747 32.5002 20.6747L26.6668 18.6113L20.8335 20.6747V24.7624C20.8335 29.9213 26.6668 32.5002 26.6668 32.5002Z" fill="#AF5B29"/>
<path d="M23.3335 24.7624C23.3335 21.6669 23.3335 20.6747 23.3335 20.6747L27.9168 19.0536L26.6668 18.6113L20.8335 20.6747V24.7624C20.8335 29.9213 26.6668 32.5002 26.6668 32.5002C26.6668 32.5002 27.1902 32.2658 27.9168 31.808C26.2035 30.7291 23.3335 28.3836 23.3335 24.7624Z" fill="#7A2F03"/>
<path d="M13.511 11.6445V11.0112C13.511 9.46672 14.5899 8.18339 16.0365 7.86005L16.0443 7.77783H14.2443C12.4554 7.77783 11.011 9.22228 11.011 11.0112V11.6445L13.5999 16.7334C13.7332 17.0223 14.0332 17.2223 14.3665 17.2223C14.811 17.2223 15.1888 16.8778 15.2221 16.4445L15.3365 15.2334L13.511 11.6445Z" fill="#7A2F03"/>
<path d="M26.1111 27.7779C26.0967 27.7779 26.0823 27.7779 26.0667 27.7768C25.8423 27.7646 25.6323 27.6624 25.4845 27.4935L23.54 25.2712L24.7945 24.1735L26.1756 25.7524L29.1578 22.999L30.2889 24.2235L26.6778 27.5568C26.5223 27.7001 26.32 27.7779 26.1111 27.7779Z" fill="black"/>
<path d="M26.6667 33.3336C26.5511 33.3336 26.4367 33.3103 26.33 33.2625C26.0711 33.148 20 30.398 20 24.7625V20.6747C20 20.3225 20.2222 20.0069 20.5556 19.8892L26.3889 17.8258C26.5678 17.7625 26.7655 17.7625 26.9444 17.8258L32.7778 19.8892C33.1111 20.0069 33.3333 20.3225 33.3333 20.6747V24.7625C33.3333 30.398 27.2622 33.148 27.0033 33.2614C26.8967 33.3103 26.7822 33.3336 26.6667 33.3336ZM21.6667 21.2647V24.7625C21.6667 28.6447 25.4911 30.9525 26.6655 31.5703C27.8378 30.9503 31.6667 28.6303 31.6667 24.7625V21.2647L26.6667 19.4958L21.6667 21.2647Z" fill="black"/>
<path d="M14.3668 18.0554C13.7134 18.0554 13.1145 17.6721 12.8423 17.0798L10.3601 11.9398L11.8612 11.2154L14.3501 16.371L15.2145 7.69873L16.8734 7.85762L16.0512 16.5243C15.9857 17.3765 15.2457 18.0554 14.3668 18.0554Z" fill="black"/>
<path d="M8.50111 25.9693L7.05444 25.1426C9.18556 21.4148 10.1778 17.8404 10.1778 13.8893V11.0115C10.1778 8.76816 12.0022 6.94482 14.2444 6.94482H17.4778C18.7578 6.94482 19.9722 7.55371 20.7256 8.57149L21.2122 9.22483C21.6678 9.83038 22.3689 10.1782 23.1333 10.1782H23.9445C25.2922 10.1782 26.3889 11.2748 26.3889 12.6226V13.2448C26.3889 14.1704 25.8745 15.0082 25.0456 15.4315L20.7945 17.5571C20.7089 17.6004 20.6345 17.6548 20.5567 17.7326L19.3767 16.5559C19.5811 16.3504 19.8011 16.1904 20.0478 16.0659L24.2933 13.9437C24.5545 13.8104 24.7211 13.5415 24.7211 13.2448V12.6226C24.7211 12.1937 24.3722 11.8448 23.9433 11.8448H23.1322C21.8589 11.8448 20.6422 11.2382 19.8778 10.2237L19.3867 9.56483C18.9445 8.96705 18.2322 8.61149 17.4778 8.61149H14.2444C12.9211 8.61149 11.8444 9.68816 11.8444 11.0115V13.8893C11.8444 18.1426 10.7822 21.9804 8.50111 25.9693Z" fill="black"/>
</svg>
