<svg width="1440" height="1024" viewBox="0 0 1440 1024" fill="none" xmlns="http://www.w3.org/2000/svg">
<g clip-path="url(#clip0)">
<g filter="url(#filter0_f)">
<rect y="844.417" width="1440" height="30.0284" fill="white"/>
</g>
<circle cx="1349" cy="512" r="19" stroke="white" stroke-width="2"/>
<circle cx="416" cy="162" r="35" stroke="white" stroke-width="2"/>
<circle cx="1223" cy="633" r="35" stroke="white" stroke-width="2"/>
<path d="M245.035 608.581L244.438 609.753C240.93 616.642 244.01 625.06 251.135 628.059C256.323 630.242 259.576 635.452 259.261 641.071L258.985 645.994C258.607 652.722 263.106 658.754 269.662 660.31C275.727 661.749 282.009 658.979 285.036 653.53L293.081 639.05C296.364 633.14 301.255 628.281 307.186 625.037L367.15 592.239C374.121 588.426 382.16 587.033 390.008 588.278L408.784 591.255C415.361 592.298 421.722 588.417 423.803 582.093L424.279 580.647C426.556 573.728 422.308 566.367 415.178 564.876C408.249 563.427 403.999 556.41 405.925 549.599L406.829 546.405C408.442 540.7 405.993 534.626 400.875 531.635C394.896 528.14 387.228 529.943 383.432 535.735L370.057 556.143C366.46 561.632 361.527 566.116 355.72 569.172L300.686 598.145C293.548 601.903 285.456 603.458 277.434 602.613L259.505 600.724C253.52 600.094 247.766 603.218 245.035 608.581Z" stroke="white" stroke-width="2"/>
<path d="M145.636 754.239L144.939 754.146C140.842 753.602 137.144 756.653 136.9 760.779C136.722 763.783 134.674 766.35 131.784 767.191L129.252 767.927C125.793 768.933 123.552 772.274 123.933 775.857C124.286 779.171 126.8 781.846 130.086 782.403L138.818 783.884C142.382 784.489 145.702 786.09 148.393 788.504L175.596 812.906C178.759 815.743 180.891 819.549 181.659 823.728L183.497 833.725C184.141 837.226 187.23 839.744 190.789 839.668L191.602 839.651C195.496 839.568 198.452 836.117 197.936 832.256C197.434 828.505 200.216 825.114 203.993 824.874L205.765 824.761C208.928 824.56 211.555 822.245 212.153 819.132C212.852 815.496 210.579 811.95 206.983 811.066L194.314 807.952C190.907 807.115 187.768 805.424 185.194 803.04L160.796 780.443C157.632 777.513 155.409 773.709 154.408 769.514L152.171 760.138C151.425 757.008 148.826 754.662 145.636 754.239Z" stroke="white" stroke-width="2"/>
<path d="M1199.66 170.114L1198.43 170.325C1191.18 171.565 1186.51 178.702 1188.27 185.845C1189.55 191.045 1187.43 196.49 1182.96 199.444L1179.05 202.033C1173.7 205.571 1171.65 212.433 1174.19 218.321C1176.54 223.767 1182.23 226.986 1188.11 226.198L1203.73 224.104C1210.11 223.249 1216.6 224.219 1222.45 226.9L1281.57 254.011C1288.44 257.163 1294.08 262.506 1297.59 269.202L1305.99 285.224C1308.94 290.835 1315.52 293.483 1321.53 291.475L1322.9 291.016C1329.47 288.819 1332.68 281.392 1329.76 275.103C1326.93 268.992 1329.86 261.759 1336.16 259.356L1339.11 258.229C1344.38 256.216 1347.62 250.894 1346.99 245.287C1346.26 238.738 1340.53 233.911 1333.95 234.308L1310.77 235.705C1304.53 236.081 1298.31 234.866 1292.67 232.173L1239.27 206.649C1232.35 203.339 1226.56 198.048 1222.64 191.446L1213.89 176.69C1210.97 171.764 1205.31 169.149 1199.66 170.114Z" stroke="white" stroke-width="2"/>
<path d="M1277.88 116.427L1277.52 116.9C1275.37 119.686 1276.05 123.704 1278.98 125.638C1281.12 127.045 1282.14 129.644 1281.53 132.128L1280.99 134.305C1280.26 137.28 1281.77 140.349 1284.57 141.591C1287.16 142.74 1290.2 142.026 1292 139.844L1296.81 134.045C1298.77 131.679 1301.36 129.916 1304.28 128.961L1333.8 119.306C1337.23 118.184 1340.94 118.232 1344.34 119.442L1352.48 122.338C1355.34 123.352 1358.5 122.149 1359.96 119.496L1360.29 118.89C1361.89 115.989 1360.6 112.346 1357.54 111.085C1354.57 109.86 1353.25 106.371 1354.68 103.488L1355.35 102.137C1356.55 99.7223 1355.96 96.8045 1353.92 95.0413C1351.54 92.9816 1347.96 93.1477 1345.79 95.4191L1338.11 103.422C1336.04 105.574 1333.47 107.166 1330.62 108.048L1303.61 116.404C1300.11 117.488 1296.37 117.508 1292.85 116.461L1285 114.123C1282.38 113.342 1279.55 114.259 1277.88 116.427Z" stroke="white" stroke-width="2"/>
<path d="M1554 775C1554 852.879 1491.31 916 1414 916C1336.69 916 1274 852.879 1274 775C1274 697.121 1336.69 634 1414 634C1491.31 634 1554 697.121 1554 775Z" stroke="white" stroke-width="2"/>
<path d="M344 261C344 338.879 281.313 402 204 402C126.687 402 64 338.879 64 261C64 183.121 126.687 120 204 120C281.313 120 344 183.121 344 261Z" stroke="white" stroke-width="2"/>
</g>
<defs>
<filter id="filter0_f" x="-100" y="744.417" width="1640" height="230.028" filterUnits="userSpaceOnUse" color-interpolation-filters="sRGB">
<feFlood flood-opacity="0" result="BackgroundImageFix"/>
<feBlend mode="normal" in="SourceGraphic" in2="BackgroundImageFix" result="shape"/>
<feGaussianBlur stdDeviation="50" result="effect1_foregroundBlur"/>
</filter>
<clipPath id="clip0">
<rect width="1440" height="1024" fill="white"/>
</clipPath>
</defs>
</svg>
