<svg width="1720" height="727" viewBox="0 0 1720 727" fill="none" xmlns="http://www.w3.org/2000/svg">
<circle cx="364" cy="163" r="73" stroke="#EFD9CB" stroke-opacity="0.5" stroke-width="4"/>
<circle cx="437.5" cy="56.5" r="7.5" fill="#EFD9CB" fill-opacity="0.5"/>
<circle cx="437.5" cy="56.5" r="5.5" stroke="#EFD9CB" stroke-opacity="0.5" stroke-width="4"/>
<circle cx="1278.5" cy="276.5" r="7.5" fill="#EFD9CB" fill-opacity="0.5"/>
<circle cx="1278.5" cy="276.5" r="5.5" stroke="#EFD9CB" stroke-opacity="0.5" stroke-width="4"/>
<circle cx="1489.5" cy="202.5" r="7.5" fill="#EFD9CB" fill-opacity="0.5"/>
<circle cx="1489.5" cy="202.5" r="5.5" stroke="#EFD9CB" stroke-opacity="0.5" stroke-width="4"/>
<circle cx="1466" cy="356" r="16" fill="#EFD9CB" fill-opacity="0.5"/>
<circle cx="1466" cy="356" r="14" stroke="#EFD9CB" stroke-opacity="0.5" stroke-width="4"/>
<circle cx="195.5" cy="195.5" r="33.5" fill="#EFD9CB" fill-opacity="0.5"/>
<circle cx="195.5" cy="195.5" r="31.5" stroke="#EFD9CB" stroke-opacity="0.5" stroke-width="4"/>
<circle cx="520" cy="8" r="6" stroke="#EFD9CB" stroke-opacity="0.5" stroke-width="4"/>
<circle cx="1387" cy="268" r="6" stroke="#EFD9CB" stroke-opacity="0.5" stroke-width="4"/>
<circle cx="340.5" cy="28.5" r="18.5" stroke="#EFD9CB" stroke-opacity="0.5" stroke-width="4"/>
<circle cx="1385.5" cy="433.5" r="37.5" stroke="#EFD9CB" stroke-opacity="0.5" stroke-width="4"/>
<circle cx="519.5" cy="113.5" r="34.5" stroke="#EFD9CB" stroke-opacity="0.5" stroke-width="4"/>
<circle cx="1585" cy="592" r="133" stroke="#EFD9CB" stroke-opacity="0.5" stroke-width="4"/>
<circle cx="132.5" cy="412.5" r="130.5" stroke="#EFD9CB" stroke-opacity="0.5" stroke-width="4"/>
<path d="M1348.73 104.835C1337.79 99.1431 1312.46 109.924 1306.28 121.823C1303.49 127.183 1305.52 132.306 1311.71 135.527C1318.45 139.027 1325.08 135.876 1330.48 138.684C1335.93 141.516 1338.2 149.297 1344.87 152.767C1351.06 155.987 1356.43 154.707 1359.21 149.348C1365.4 137.449 1359.68 110.527 1348.73 104.835ZM1329.44 92.3418C1330.77 86.2755 1328.14 80.533 1323.57 79.5145C1319 78.496 1314.22 82.5882 1312.89 88.6545C1311.55 94.7209 1314.18 100.463 1318.75 101.482C1323.32 102.5 1328.1 98.4082 1329.44 92.3418ZM1342.77 95.2235C1347.69 96.1912 1353.16 90.882 1355 83.3657C1356.83 75.8494 1354.33 68.9733 1349.42 68.0055C1344.5 67.0378 1339.03 72.347 1337.2 79.8633C1335.36 87.3796 1337.86 94.258 1342.77 95.2235ZM1383.91 110.888C1380.45 107.732 1374.24 108.882 1370.04 113.456C1365.84 118.032 1365.24 124.299 1368.7 127.455C1372.16 130.611 1378.36 129.461 1382.56 124.886C1386.76 120.311 1387.37 114.044 1383.91 110.888ZM1360.02 104.192C1363.64 107.66 1370.7 105.755 1375.8 99.9363C1380.9 94.1174 1382.1 86.5905 1378.49 83.1212C1374.87 79.652 1367.81 81.558 1362.71 87.3769C1357.61 93.1958 1356.41 100.724 1360.02 104.192Z" fill="#EFD9CB" fill-opacity="0.5"/>
</svg>
