<svg width="375" height="527" viewBox="0 0 375 527" fill="none" xmlns="http://www.w3.org/2000/svg">
<circle cx="195.784" cy="299.115" r="3.78354" fill="#EFD9CB" fill-opacity="0.7"/>
<circle cx="195.784" cy="299.115" r="2" stroke="#EFD9CB" stroke-opacity="0.7" stroke-width="3.56708"/>
<circle cx="302.228" cy="261.784" r="3.78354" fill="#EFD9CB" fill-opacity="0.7"/>
<circle cx="302.228" cy="261.784" r="2" stroke="#EFD9CB" stroke-opacity="0.7" stroke-width="3.56708"/>
<circle cx="290.373" cy="339.22" r="8.07156" fill="#EFD9CB" fill-opacity="0.7"/>
<circle cx="290.373" cy="339.22" r="6.07156" stroke="#EFD9CB" stroke-opacity="0.7" stroke-width="4"/>
<circle cx="250.519" cy="294.826" r="2.03578" stroke="#EFD9CB" stroke-opacity="0.7" stroke-width="4"/>
<circle cx="249.763" cy="378.317" r="17.9267" stroke="#EFD9CB" stroke-opacity="0.7" stroke-width="4"/>
<circle cx="350.406" cy="458.276" r="66.1038" stroke="#EFD9CB" stroke-opacity="0.7" stroke-width="4"/>
<circle cx="66.9438" cy="143.348" r="35.8354" transform="rotate(-18.4265 66.9438 143.348)" stroke="#EFD9CB" stroke-opacity="0.7" stroke-width="4"/>
<circle cx="85.139" cy="80.6563" r="3.78354" transform="rotate(-18.4265 85.139 80.6563)" fill="#EFD9CB" fill-opacity="0.7"/>
<circle cx="85.139" cy="80.6563" r="2" transform="rotate(-18.4265 85.139 80.6563)" stroke="#EFD9CB" stroke-opacity="0.7" stroke-width="3.56708"/>
<circle cx="-8.51933" cy="185.771" r="16.8998" transform="rotate(-18.4265 -8.51933 185.771)" fill="#EFD9CB" fill-opacity="0.7"/>
<circle cx="-8.51933" cy="185.771" r="14.8998" transform="rotate(-18.4265 -8.51933 185.771)" stroke="#EFD9CB" stroke-opacity="0.7" stroke-width="4"/>
<circle cx="116.891" cy="44.2881" r="2.03578" transform="rotate(-18.4265 116.891 44.2881)" stroke="#EFD9CB" stroke-opacity="0.7" stroke-width="4"/>
<circle cx="34.2483" cy="82.7228" r="8.34168" transform="rotate(-18.4265 34.2483 82.7228)" stroke="#EFD9CB" stroke-opacity="0.7" stroke-width="4"/>
<circle cx="133.474" cy="94.8614" r="16.4132" transform="rotate(-18.4265 133.474 94.8614)" stroke="#EFD9CB" stroke-opacity="0.7" stroke-width="4"/>
<circle cx="-4.06956" cy="299.675" r="64.8426" transform="rotate(-18.4265 -4.06956 299.675)" stroke="#EFD9CB" stroke-opacity="0.7" stroke-width="4"/>
<path d="M352.117 24.1315C346.594 21.26 333.82 26.6986 330.698 32.7015C329.292 35.4051 330.317 37.9898 333.442 39.6144C336.838 41.3805 340.186 39.7909 342.91 41.2073C345.658 42.636 346.802 46.5612 350.169 48.3117C353.293 49.9363 355.997 49.2906 357.403 46.587C360.524 40.5841 357.639 27.003 352.117 24.1315ZM342.382 17.829C343.055 14.7687 341.73 11.8717 339.425 11.3579C337.119 10.8441 334.706 12.9085 334.033 15.9688C333.361 19.0291 334.685 21.9261 336.991 22.4399C339.296 22.9537 341.71 20.8893 342.382 17.829ZM349.111 19.2827C351.591 19.7709 354.351 17.0925 355.276 13.3008C356.202 9.50902 354.942 6.04021 352.462 5.55199C349.983 5.06378 347.222 7.74215 346.297 11.5339C345.371 15.3257 346.632 18.7956 349.111 19.2827ZM369.862 27.1849C368.117 25.5927 364.986 26.1729 362.866 28.4807C360.747 30.7889 360.443 33.9504 362.188 35.5425C363.933 37.1347 367.064 36.5545 369.184 34.2467C371.303 31.9386 371.607 28.777 369.862 27.1849ZM357.812 23.807C359.636 25.5564 363.2 24.5957 365.772 21.6602C368.344 18.7247 368.951 14.9276 367.128 13.1774C365.304 11.4273 361.74 12.3888 359.168 15.3243C356.596 18.2598 355.989 22.0577 357.812 23.807Z" fill="#EFD9CB" fill-opacity="0.7"/>
</svg>
