<svg width="14" height="20" viewBox="0 0 14 20" fill="none" xmlns="http://www.w3.org/2000/svg">
<path fill-rule="evenodd" clip-rule="evenodd" d="M7 1.24993C5.67392 1.24993 4.40215 1.77671 3.46447 2.71439C2.52678 3.65207 2 4.92384 2 6.24992C2 7.57601 2.52678 8.84778 3.46447 9.78546C4.40215 10.7231 5.67392 11.2499 7 11.2499C8.32608 11.2499 9.59785 10.7231 10.5355 9.78546C11.4732 8.84778 12 7.57601 12 6.24992C12 4.92384 11.4732 3.65207 10.5355 2.71439C9.59785 1.77671 8.32608 1.24993 7 1.24993ZM0.75 6.24992C0.750015 5.04044 1.10096 3.85695 1.76028 2.84297C2.4196 1.82899 3.35897 1.0281 4.46445 0.537431C5.56993 0.0467584 6.79403 -0.112616 7.9883 0.0786373C9.18257 0.269891 10.2957 0.803554 11.1927 1.61491C12.0896 2.42626 12.7319 3.48044 13.0416 4.6496C13.3513 5.81875 13.3151 7.05266 12.9375 8.20166C12.5598 9.35066 11.8568 10.3654 10.9139 11.1228C9.9709 11.8802 8.82842 12.3477 7.625 12.4687V14.9999H10.125C10.2908 14.9999 10.4497 15.0658 10.5669 15.183C10.6842 15.3002 10.75 15.4592 10.75 15.6249C10.75 15.7907 10.6842 15.9497 10.5669 16.0669C10.4497 16.1841 10.2908 16.2499 10.125 16.2499H7.625V19.3749C7.625 19.5407 7.55915 19.6997 7.44194 19.8169C7.32473 19.9341 7.16576 19.9999 7 19.9999C6.83424 19.9999 6.67527 19.9341 6.55806 19.8169C6.44085 19.6997 6.375 19.5407 6.375 19.3749V16.2499H3.875C3.70924 16.2499 3.55027 16.1841 3.43306 16.0669C3.31585 15.9497 3.25 15.7907 3.25 15.6249C3.25 15.4592 3.31585 15.3002 3.43306 15.183C3.55027 15.0658 3.70924 14.9999 3.875 14.9999H6.375V12.4687C4.83336 12.3137 3.40422 11.5917 2.36485 10.4426C1.32548 9.29352 0.749981 7.79934 0.75 6.24992Z" fill="#AF5B29"/>
</svg>
