<svg width="1440" height="170" viewBox="0 0 1440 170" fill="none" xmlns="http://www.w3.org/2000/svg">
<g clip-path="url(#clip0)">
<path d="M0 0H1440V170H0V0Z" fill="#EDEDED"/>
<path d="M341.625 28.3985C341.625 41.2981 331.124 51.7588 318.166 51.7588C305.209 51.7588 294.708 41.2981 294.708 28.3985C294.708 15.4989 305.209 5.03821 318.166 5.03821C331.124 5.03821 341.625 15.4989 341.625 28.3985Z" stroke="white"/>
<path d="M1426.26 78.774C1426.26 92.7306 1414.9 104.048 1400.88 104.048C1386.86 104.048 1375.5 92.7306 1375.5 78.774C1375.5 64.8175 1386.86 53.5 1400.88 53.5C1414.9 53.5 1426.26 64.8175 1426.26 78.774Z" stroke="white"/>
<path d="M381.009 66.117C381.009 67.2623 380.076 68.1944 378.921 68.1944C377.766 68.1944 376.833 67.2623 376.833 66.117C376.833 64.9716 377.766 64.0396 378.921 64.0396C380.076 64.0396 381.009 64.9716 381.009 66.117Z" stroke="white"/>
<path d="M671.21 141.72C671.21 142.865 670.277 143.797 669.122 143.797C667.967 143.797 667.034 142.865 667.034 141.72C667.034 140.575 667.967 139.643 669.122 139.643C670.277 139.643 671.21 140.575 671.21 141.72Z" stroke="white"/>
<path d="M744.019 116.29C744.019 117.436 743.086 118.368 741.931 118.368C740.776 118.368 739.843 117.436 739.843 116.29C739.843 115.145 740.776 114.213 741.931 114.213C743.086 114.213 744.019 115.145 744.019 116.29Z" stroke="white"/>
<path d="M713.959 72.0737C713.959 74.8323 711.713 77.0721 708.938 77.0721C706.163 77.0721 703.917 74.8323 703.917 72.0737C703.917 69.315 706.163 67.0752 708.938 67.0752C711.713 67.0752 713.959 69.315 713.959 72.0737Z" stroke="white"/>
<path d="M1285.13 74.4985C1285.13 77.2571 1282.88 79.4969 1280.1 79.4969C1277.33 79.4969 1275.08 77.2571 1275.08 74.4985C1275.08 71.7398 1277.33 69.5 1280.1 69.5C1282.88 69.5 1285.13 71.7398 1285.13 74.4985Z" stroke="white"/>
<path d="M207.619 129.626C207.619 135.706 202.67 140.638 196.56 140.638C190.45 140.638 185.5 135.706 185.5 129.626C185.5 123.546 190.45 118.613 196.56 118.613C202.67 118.613 207.619 123.546 207.619 129.626Z" stroke="white"/>
<path d="M708.822 138.799C708.822 140.04 707.812 141.049 706.561 141.049C705.311 141.049 704.301 140.04 704.301 138.799C704.301 137.559 705.311 136.55 706.561 136.55C707.812 136.55 708.822 137.559 708.822 138.799Z" stroke="white"/>
<path d="M966.458 140.542C966.458 146.326 961.75 151.018 955.937 151.018C950.125 151.018 945.417 146.326 945.417 140.542C945.417 134.758 950.125 130.066 955.937 130.066C961.75 130.066 966.458 134.758 966.458 140.542Z" stroke="white"/>
<path d="M990.417 122.886C990.417 125.77 988.068 128.112 985.167 128.112C982.265 128.112 979.917 125.77 979.917 122.886C979.917 120.001 982.265 117.659 985.167 117.659C988.068 117.659 990.417 120.001 990.417 122.886Z" stroke="white"/>
<path d="M231.458 116.205C231.458 119.089 229.11 121.431 226.208 121.431C223.307 121.431 220.958 119.089 220.958 116.205C220.958 113.32 223.307 110.978 226.208 110.978C229.11 110.978 231.458 113.32 231.458 116.205Z" stroke="white"/>
<path d="M247.75 136.724C247.75 138.818 246.045 140.519 243.938 140.519C241.83 140.519 240.125 138.818 240.125 136.724C240.125 134.63 241.83 132.929 243.938 132.929C246.045 132.929 247.75 134.63 247.75 136.724Z" stroke="white"/>
<path d="M1263.01 68.6966C1263.01 75.9155 1257.13 81.771 1249.88 81.771C1242.63 81.771 1236.75 75.9155 1236.75 68.6966C1236.75 61.4778 1242.63 55.6223 1249.88 55.6223C1257.13 55.6223 1263.01 61.4778 1263.01 68.6966Z" stroke="white"/>
<path d="M498.106 136.543C498.106 143.193 492.693 148.587 486.011 148.587C479.33 148.587 473.917 143.193 473.917 136.543C473.917 129.894 479.33 124.5 486.011 124.5C492.693 124.5 498.106 129.894 498.106 136.543Z" stroke="white"/>
<path d="M1439.5 140.074C1439.5 146.723 1434.09 152.117 1427.4 152.117C1420.72 152.117 1415.31 146.723 1415.31 140.074C1415.31 133.424 1420.72 128.03 1427.4 128.03C1434.09 128.03 1439.5 133.424 1439.5 140.074Z" stroke="white"/>
<path d="M1065.38 -0.606728C1065.38 24.7375 1044.75 45.2865 1019.29 45.2865C993.839 45.2865 973.208 24.7375 973.208 -0.606728C973.208 -25.951 993.839 -46.5 1019.29 -46.5C1044.75 -46.5 1065.38 -25.951 1065.38 -0.606728Z" stroke="white"/>
<path d="M90.9424 105.632C90.9424 130.502 70.6981 150.666 45.7212 150.666C20.7443 150.666 0.5 130.502 0.5 105.632C0.5 80.7625 20.7443 60.5981 45.7212 60.5981C70.6981 60.5981 90.9424 80.7625 90.9424 105.632Z" stroke="white"/>
<path d="M326.594 86.6474L326.191 86.7162C323.825 87.1207 322.3 89.4493 322.876 91.7797C323.295 93.4762 322.601 95.2528 321.143 96.2168L319.866 97.0615C318.121 98.2156 317.454 100.455 318.283 102.376C319.05 104.153 320.905 105.203 322.823 104.946L327.921 104.262C330.001 103.984 332.118 104.3 334.026 105.175L353.317 114.02C355.559 115.049 357.398 116.792 358.544 118.977L361.286 124.204C362.246 126.035 364.392 126.899 366.353 126.243L366.801 126.094C368.947 125.377 369.991 122.954 369.04 120.902C368.115 118.908 369.074 116.548 371.127 115.764L372.09 115.396C373.809 114.74 374.868 113.003 374.663 111.174C374.424 109.037 372.552 107.462 370.406 107.592L362.843 108.048C360.809 108.17 358.778 107.774 356.94 106.895L339.516 98.5675C337.256 97.4875 335.368 95.7611 334.09 93.6071L331.234 88.7927C330.281 87.1856 328.435 86.3325 326.594 86.6474Z" stroke="white"/>
<path d="M1059.26 123.893L1059.08 124.312C1058.06 126.78 1059.34 129.598 1061.88 130.441C1063.72 131.054 1064.98 132.763 1065.03 134.707L1065.06 136.411C1065.11 138.739 1066.82 140.697 1069.12 141.058C1071.25 141.392 1073.34 140.27 1074.24 138.312L1076.62 133.108C1077.6 130.984 1079.15 129.18 1081.11 127.904L1100.89 115.003C1103.19 113.503 1105.93 112.809 1108.66 113.028L1115.21 113.553C1117.51 113.737 1119.59 112.23 1120.14 109.995L1120.27 109.484C1120.87 107.04 1119.21 104.617 1116.71 104.293C1114.29 103.979 1112.63 101.675 1113.12 99.2769L1113.34 98.1523C1113.75 96.1437 1112.74 94.1164 1110.9 93.2223C1108.74 92.178 1106.15 93.0038 1105 95.1007L1100.93 102.489C1099.84 104.476 1098.26 106.153 1096.34 107.361L1078.15 118.812C1075.79 120.297 1073.05 121.049 1070.26 120.972L1064.03 120.8C1061.95 120.742 1060.06 121.972 1059.26 123.893Z" stroke="white"/>
</g>
<defs>
<clipPath id="clip0">
<rect width="1440" height="170" fill="white"/>
</clipPath>
</defs>
</svg>
