<svg width="14" height="28" viewBox="0 0 14 28" fill="none" xmlns="http://www.w3.org/2000/svg">
<rect x="0.5" y="7.5" width="13" height="13" rx="6.5" stroke="#AF5B29"/>
<path d="M6.192 15.906C6.192 15.5327 6.25267 15.206 6.374 14.926C6.50467 14.6367 6.65867 14.394 6.836 14.198C7.02267 14.002 7.26533 13.7687 7.564 13.498C7.93733 13.1713 8.21267 12.8913 8.39 12.658C8.56733 12.4153 8.656 12.126 8.656 11.79C8.656 11.3327 8.47867 10.9687 8.124 10.698C7.76933 10.418 7.27933 10.278 6.654 10.278C5.562 10.278 4.72667 10.6467 4.148 11.384L3.126 10.656C3.518 10.152 4.01733 9.76467 4.624 9.494C5.24 9.22333 5.94933 9.088 6.752 9.088C7.76933 9.088 8.57667 9.312 9.174 9.76C9.77133 10.1987 10.07 10.8053 10.07 11.58C10.07 11.9627 10.0047 12.3033 9.874 12.602C9.75267 12.8913 9.60333 13.134 9.426 13.33C9.24867 13.526 9.01067 13.7593 8.712 14.03C8.32933 14.3753 8.04467 14.6787 7.858 14.94C7.68067 15.2013 7.592 15.5233 7.592 15.906H6.192ZM6.906 19.084C6.64467 19.084 6.42533 19 6.248 18.832C6.08 18.6547 5.996 18.44 5.996 18.188C5.996 17.936 6.08 17.726 6.248 17.558C6.42533 17.3807 6.64467 17.292 6.906 17.292C7.16733 17.292 7.382 17.3807 7.55 17.558C7.718 17.726 7.802 17.936 7.802 18.188C7.802 18.44 7.71333 18.6547 7.536 18.832C7.368 19 7.158 19.084 6.906 19.084Z" fill="#AF5B29"/>
</svg>
