<svg width="11" height="16" viewBox="0 0 11 16" fill="none" xmlns="http://www.w3.org/2000/svg">
<path d="M5.5 15.2292C5.37031 15.0735 5.21165 14.8798 5.03161 14.654C4.52234 14.0151 3.84409 13.1209 3.1668 12.0988C2.48858 11.0753 1.8173 9.93247 1.31703 8.79551C0.813964 7.65217 0.5 6.55063 0.5 5.6C0.5 2.77161 2.74388 0.5 5.5 0.5C8.25612 0.5 10.5 2.77161 10.5 5.6C10.5 6.55063 10.186 7.65217 9.68297 8.79551C9.1827 9.93247 8.51142 11.0753 7.8332 12.0988C7.15591 13.1209 6.47766 14.0151 5.96839 14.654C5.78835 14.8798 5.62969 15.0735 5.5 15.2292ZM3.75432 7.36457C4.21574 7.83438 4.84349 8.1 5.5 8.1C6.15651 8.1 6.78426 7.83438 7.24568 7.36457C7.7068 6.89506 7.96429 6.26016 7.96429 5.6C7.96429 4.93984 7.7068 4.30494 7.24568 3.83543C6.78426 3.36562 6.15651 3.1 5.5 3.1C4.84349 3.1 4.21574 3.36562 3.75432 3.83543C3.2932 4.30494 3.03571 4.93984 3.03571 5.6C3.03571 6.26016 3.2932 6.89506 3.75432 7.36457Z" stroke="#AF5B29"/>
</svg>
