<svg width="92" height="40" viewBox="0 0 92 40" fill="none" xmlns="http://www.w3.org/2000/svg">
<ellipse rx="2.5471" ry="3.79286" transform="matrix(0.988867 -0.148804 0.149452 0.988769 70.7516 13.5124)" fill="#AF5B29"/>
<ellipse rx="2.54265" ry="3.86439" transform="matrix(0.500833 0.865544 -0.866505 0.499168 84.8414 22.1307)" fill="#AF5B29"/>
<ellipse cx="77.5183" cy="9.57824" rx="3.12918" ry="5.02957" transform="rotate(12.2283 77.5183 9.57824)" fill="#AF5B29"/>
<ellipse rx="3.14556" ry="5.05511" transform="matrix(0.656424 0.754393 -0.755833 0.654764 85.4704 13.5413)" fill="#AF5B29"/>
<ellipse rx="1.23647" ry="1.74945" transform="matrix(0.992986 -0.11823 0.118748 0.992924 70.9667 14.7823)" fill="black"/>
<ellipse rx="1.21038" ry="1.74729" transform="matrix(-0.500833 -0.865544 0.866505 -0.499168 83.8086 22.943)" fill="black"/>
<ellipse rx="1.41397" ry="2.37461" transform="matrix(-0.617702 -0.786412 0.787742 -0.616006 84.1366 14.8198)" fill="black"/>
<ellipse rx="1.46108" ry="2.29603" transform="matrix(-0.966069 -0.258284 0.259356 -0.965782 77.1269 11.4398)" fill="black"/>
<path d="M73.9506 32.2342C71.0131 32.7738 72.729 35.4406 70.7312 35.949C69.8747 36.1669 68.4409 35.6476 67.5117 35.206C66.2731 34.6176 65.6156 34.0094 65.5305 32.7295C65.4453 31.4496 67.2988 30.5314 67.0164 28.2718C66.7339 26.0122 63.5493 27.0294 63.0539 25.0523C62.5585 23.0752 65.5305 22.8234 69.7406 19.8516C76.4065 15.9538 77.234 15.1002 78.4084 15.3937C79.5829 15.6872 79.8944 16.1368 80.2148 17.1274C80.5353 18.118 80.3896 23.0711 80.3896 25.7952C80.3896 27.1573 80.4283 28.8289 80.3896 30.5006C80.3509 32.1722 80.3896 33.7201 79.399 34.2154C77.2174 35.3062 76.8881 31.6947 73.9506 32.2342Z" fill="#AF5B29"/>
<path d="M75.9311 23.0701C75.267 22.4074 74.6141 22.3271 73.9499 22.3271C73.2857 22.3271 72.9764 22.5628 71.3581 23.5594C69.7398 24.556 68.0062 25.0513 68.2539 26.0419C68.5016 27.0325 69.6213 26.3668 69.9875 27.2802C70.3536 28.1935 69.7398 28.1836 69.7398 29.5091C69.7398 30.8345 71.3045 31.2159 71.9687 30.995C72.6329 30.7741 72.9124 29.617 73.8381 29.617C74.7637 29.617 75.4358 30.7473 76.1788 30.252C76.9218 29.7567 76.6741 26.979 76.6741 26.5372C76.6741 26.0954 76.5953 23.7328 75.9311 23.0701Z" fill="black"/>
<path d="M1.08 12.2C1.368 12.152 1.688 12.12 2.04 12.104C2.408 12.072 2.776 12.048 3.144 12.032C3.528 12 3.896 11.984 4.248 11.984C4.6 11.968 4.912 11.96 5.184 11.96C6.512 11.96 7.616 12.168 8.496 12.584C9.392 12.984 10.104 13.56 10.632 14.312C11.176 15.048 11.56 15.936 11.784 16.976C12.008 18.016 12.12 19.176 12.12 20.456C12.12 21.624 12.008 22.744 11.784 23.816C11.576 24.872 11.2 25.808 10.656 26.624C10.112 27.424 9.376 28.064 8.448 28.544C7.52 29.024 6.352 29.264 4.944 29.264C4.736 29.264 4.456 29.256 4.104 29.24C3.752 29.224 3.384 29.2 3 29.168C2.616 29.152 2.248 29.128 1.896 29.096C1.544 29.08 1.272 29.056 1.08 29.024V12.2ZM5.496 14.744C5.24 14.744 4.976 14.752 4.704 14.768C4.448 14.768 4.248 14.784 4.104 14.816V26.384C4.152 26.4 4.232 26.416 4.344 26.432C4.472 26.432 4.6 26.44 4.728 26.456C4.872 26.456 5 26.464 5.112 26.48C5.24 26.48 5.328 26.48 5.376 26.48C6.096 26.48 6.688 26.312 7.152 25.976C7.616 25.64 7.976 25.192 8.232 24.632C8.504 24.072 8.688 23.432 8.784 22.712C8.896 21.976 8.952 21.208 8.952 20.408C8.952 19.672 8.904 18.96 8.808 18.272C8.728 17.584 8.56 16.984 8.304 16.472C8.064 15.944 7.712 15.528 7.248 15.224C6.8 14.904 6.216 14.744 5.496 14.744ZM12.0037 23C12.0037 20.872 12.4197 19.288 13.2517 18.248C14.0837 17.208 15.2437 16.688 16.7317 16.688C18.3318 16.688 19.5238 17.216 20.3077 18.272C21.0917 19.328 21.4837 20.904 21.4837 23C21.4837 25.144 21.0677 26.736 20.2358 27.776C19.4037 28.8 18.2357 29.312 16.7317 29.312C13.5797 29.312 12.0037 27.208 12.0037 23ZM14.9557 23C14.9557 24.2 15.0917 25.128 15.3637 25.784C15.6357 26.44 16.0917 26.768 16.7317 26.768C17.3397 26.768 17.7878 26.488 18.0758 25.928C18.3798 25.352 18.5317 24.376 18.5317 23C18.5317 21.768 18.3957 20.832 18.1237 20.192C17.8517 19.552 17.3877 19.232 16.7317 19.232C16.1717 19.232 15.7317 19.52 15.4117 20.096C15.1077 20.656 14.9557 21.624 14.9557 23ZM30.2752 29C30.2752 30.744 29.8752 32.024 29.0752 32.84C28.2752 33.672 27.1632 34.088 25.7392 34.088C24.7472 34.088 23.9712 34.008 23.4112 33.848C22.8512 33.704 22.4192 33.544 22.1152 33.368L22.7152 30.944C23.0672 31.088 23.4432 31.224 23.8432 31.352C24.2592 31.48 24.7472 31.544 25.3072 31.544C26.1232 31.544 26.6832 31.32 26.9872 30.872C27.3072 30.44 27.4672 29.776 27.4672 28.88V28.232H27.3952C27.1712 28.552 26.8672 28.792 26.4832 28.952C26.1152 29.112 25.6352 29.192 25.0432 29.192C23.7792 29.192 22.8272 28.72 22.1872 27.776C21.5632 26.816 21.2512 25.304 21.2512 23.24C21.2512 21.016 21.6832 19.376 22.5472 18.32C23.4272 17.264 24.6752 16.736 26.2912 16.736C27.1552 16.736 27.9312 16.808 28.6192 16.952C29.3072 17.08 29.8592 17.24 30.2752 17.432V29ZM25.8352 26.744C26.2672 26.744 26.6032 26.64 26.8432 26.432C27.0992 26.224 27.2912 25.928 27.4192 25.544V19.544C27.2432 19.464 27.0432 19.4 26.8192 19.352C26.6112 19.304 26.3632 19.28 26.0752 19.28C25.4832 19.28 25.0192 19.568 24.6832 20.144C24.3632 20.72 24.2032 21.712 24.2032 23.12C24.2032 25.536 24.7472 26.744 25.8352 26.744Z" fill="#AF5B29"/>
<path d="M40.1719 28.352C39.7719 28.688 39.2679 28.928 38.6599 29.072C38.0519 29.216 37.4119 29.288 36.7399 29.288C35.8919 29.288 35.1079 29.128 34.3879 28.808C33.6679 28.488 33.0439 27.984 32.5159 27.296C32.0039 26.592 31.6039 25.688 31.3159 24.584C31.0279 23.48 30.8839 22.152 30.8839 20.6C30.8839 19 31.0439 17.648 31.3639 16.544C31.6999 15.44 32.1399 14.544 32.6839 13.856C33.2279 13.168 33.8519 12.672 34.5559 12.368C35.2759 12.064 36.0119 11.912 36.7639 11.912C37.5319 11.912 38.1639 11.968 38.6599 12.08C39.1719 12.192 39.6119 12.328 39.9799 12.488L39.5479 14.12C39.2279 13.944 38.8519 13.808 38.4199 13.712C37.9879 13.616 37.4919 13.568 36.9319 13.568C36.3719 13.568 35.8439 13.696 35.3479 13.952C34.8519 14.192 34.4119 14.592 34.0279 15.152C33.6439 15.696 33.3399 16.416 33.1159 17.312C32.8919 18.208 32.7799 19.304 32.7799 20.6C32.7799 22.936 33.1799 24.696 33.9799 25.88C34.7799 27.048 35.8439 27.632 37.1719 27.632C37.7159 27.632 38.2039 27.56 38.6359 27.416C39.0679 27.256 39.4359 27.072 39.7399 26.864L40.1719 28.352ZM42.4281 26.144C42.4281 26.704 42.5001 27.104 42.6441 27.344C42.8041 27.584 43.0201 27.704 43.2921 27.704C43.6281 27.704 44.0201 27.616 44.4681 27.44L44.6361 28.832C44.4281 28.96 44.1321 29.064 43.7481 29.144C43.3801 29.224 43.0441 29.264 42.7401 29.264C42.1321 29.264 41.6361 29.08 41.2521 28.712C40.8841 28.328 40.7001 27.664 40.7001 26.72V12.2H42.4281V26.144ZM44.7896 17H46.5176V29H44.7896V17ZM44.4776 13.352C44.4776 12.968 44.5816 12.656 44.7896 12.416C45.0136 12.176 45.3016 12.056 45.6536 12.056C46.0056 12.056 46.2936 12.176 46.5176 12.416C46.7576 12.64 46.8776 12.952 46.8776 13.352C46.8776 13.736 46.7576 14.04 46.5176 14.264C46.2936 14.472 46.0056 14.576 45.6536 14.576C45.3016 14.576 45.0136 14.464 44.7896 14.24C44.5816 14.016 44.4776 13.72 44.4776 13.352ZM54.6487 28.4C54.2487 28.704 53.7927 28.928 53.2808 29.072C52.7687 29.216 52.2327 29.288 51.6727 29.288C50.9047 29.288 50.2567 29.144 49.7287 28.856C49.2007 28.552 48.7687 28.128 48.4327 27.584C48.1127 27.024 47.8727 26.36 47.7127 25.592C47.5687 24.808 47.4967 23.944 47.4967 23C47.4967 20.952 47.8567 19.392 48.5767 18.32C49.3127 17.248 50.3607 16.712 51.7207 16.712C52.3447 16.712 52.8807 16.768 53.3287 16.88C53.7767 16.992 54.1607 17.136 54.4807 17.312L54.0008 18.824C53.3607 18.456 52.6647 18.272 51.9127 18.272C51.0487 18.272 50.3927 18.656 49.9447 19.424C49.5127 20.176 49.2967 21.368 49.2967 23C49.2967 23.656 49.3447 24.272 49.4407 24.848C49.5367 25.424 49.6967 25.928 49.9207 26.36C50.1447 26.776 50.4327 27.112 50.7847 27.368C51.1367 27.608 51.5767 27.728 52.1047 27.728C52.5207 27.728 52.9047 27.656 53.2567 27.512C53.6247 27.368 53.9207 27.2 54.1447 27.008L54.6487 28.4ZM57.5154 23.6H56.6274V29H54.8994V12.2H56.6274V22.424L57.4194 22.088L60.2274 17H62.2194L59.3874 21.848L58.5474 22.616L59.5314 23.552L62.6274 29H60.5394L57.5154 23.6Z" fill="black"/>
</svg>
