<svg width="18" height="18" viewBox="0 0 18 18" fill="none" xmlns="http://www.w3.org/2000/svg">
<path fill-rule="evenodd" clip-rule="evenodd" d="M10.875 1.5C10.7093 1.5 10.5503 1.43415 10.4331 1.31694C10.3159 1.19973 10.25 1.04076 10.25 0.875C10.25 0.70924 10.3159 0.550268 10.4331 0.433058C10.5503 0.315848 10.7093 0.25 10.875 0.25H17.125C17.2908 0.25 17.4498 0.315848 17.567 0.433058C17.6842 0.550268 17.75 0.70924 17.75 0.875V7.125C17.75 7.29076 17.6842 7.44973 17.567 7.56694C17.4498 7.68415 17.2908 7.75 17.125 7.75C16.9593 7.75 16.8003 7.68415 16.6831 7.56694C16.5659 7.44973 16.5 7.29076 16.5 7.125V2.38375L11.3388 7.545C12.3535 8.78649 12.8523 10.3705 12.732 11.9694C12.6117 13.5683 11.8814 15.0599 10.6923 16.1355C9.50316 17.2111 7.9461 17.7886 6.34316 17.7484C4.74022 17.7083 3.21402 17.0536 2.08022 15.9198C0.946413 14.786 0.291738 13.2598 0.251595 11.6569C0.211452 10.0539 0.788912 8.49687 1.86454 7.30773C2.94017 6.1186 4.43169 5.38835 6.03061 5.26802C7.62954 5.14769 9.21354 5.64649 10.455 6.66125L15.6163 1.5H10.875ZM6.50003 6.5C5.17395 6.5 3.90218 7.02678 2.9645 7.96447C2.02682 8.90215 1.50003 10.1739 1.50003 11.5C1.50003 12.8261 2.02682 14.0979 2.9645 15.0355C3.90218 15.9732 5.17395 16.5 6.50003 16.5C7.82611 16.5 9.09788 15.9732 10.0356 15.0355C10.9732 14.0979 11.5 12.8261 11.5 11.5C11.5 10.1739 10.9732 8.90215 10.0356 7.96447C9.09788 7.02678 7.82611 6.5 6.50003 6.5Z" fill="#AF5B29"/>
</svg>
