<svg width="40" height="40" viewBox="0 0 40 40" fill="none" xmlns="http://www.w3.org/2000/svg">
<path d="M14.8999 38.888C21.8977 35.7113 28.3499 37.1557 31.7222 35.6257C35.0944 34.0946 41.2966 28.9413 34.2555 13.428C27.2144 -2.08538 16.6544 -0.0387135 12.9444 1.64462C-4.42452 9.52795 2.50548 44.5135 14.8999 38.888Z" fill="#EFEFEF"/>
<path d="M32.8827 9.44488V25.0004C32.8827 26.2227 31.8827 27.2227 30.6605 27.2227H17.3271L11.7716 32.7782V27.2227H9.54937C8.32715 27.2227 7.32715 26.2227 7.32715 25.0004V9.44488C7.32715 8.22266 8.32715 7.22266 9.54937 7.22266H30.6605C31.8827 7.22266 32.8827 8.22266 32.8827 9.44488Z" fill="#F3F3F1"/>
<path d="M19.4452 11.6665H20.5563C21.1696 11.6665 21.6674 12.1643 21.6674 12.7776V16.1109H25.0007C25.6141 16.1109 26.1119 16.6087 26.1119 17.2221V18.3332C26.1119 18.9465 25.6141 19.4443 25.0007 19.4443H21.6674V22.7776C21.6674 23.3909 21.1696 23.8887 20.5563 23.8887H19.4452C18.8319 23.8887 18.3341 23.3909 18.3341 22.7776V19.4443H15.0008C14.3874 19.4443 13.8896 18.9465 13.8896 18.3332V17.2221C13.8896 16.6087 14.3874 16.1109 15.0008 16.1109H18.3341V12.7776C18.3341 12.1643 18.8319 11.6665 19.4452 11.6665Z" fill="#AF5B29"/>
<path d="M17.223 19.4447H15.0008C14.3896 19.4447 13.8896 18.9447 13.8896 18.3335V17.2224C13.8896 16.6113 14.3896 16.1113 15.0008 16.1113H17.223C16.6119 16.1113 16.1119 16.6113 16.1119 17.2224V18.3335C16.1119 18.9447 16.6119 19.4447 17.223 19.4447Z" fill="#7A2F03"/>
<path d="M11.7716 27.2227H9.54937C8.32715 27.2227 7.32715 26.2227 7.32715 25.0004V9.44488C7.32715 8.22266 8.32715 7.22266 9.54937 7.22266H11.7716C10.5494 7.22266 9.54937 8.22266 9.54937 9.44488V25.0004C9.54937 26.2227 10.5494 27.2227 11.7716 27.2227Z" fill="#CBCBCB"/>
<path d="M11.6674 33.6109C11.5596 33.6109 11.4519 33.5898 11.3485 33.5476C11.0374 33.4187 10.8341 33.1142 10.8341 32.7776V28.0553H9.4452C7.75965 28.0553 6.38965 26.6853 6.38965 24.9998V9.44423C6.38965 7.75867 7.75965 6.38867 9.4452 6.38867H30.5563C32.2419 6.38867 33.6119 7.75867 33.6119 9.44423V24.9998C33.6119 26.6853 32.2419 28.0553 30.5563 28.0553H17.5685L12.2574 33.3665C12.0974 33.5265 11.8841 33.6109 11.6674 33.6109ZM9.4452 8.05534C8.67965 8.05534 8.05632 8.67867 8.05632 9.44423V24.9998C8.05632 25.7653 8.67965 26.3887 9.4452 26.3887H11.6674C12.1274 26.3887 12.5008 26.762 12.5008 27.222V30.7653L16.6341 26.632C16.7908 26.4753 17.003 26.3876 17.223 26.3876H30.5563C31.3219 26.3876 31.9452 25.7642 31.9452 24.9987V9.44312C31.9452 8.67756 31.3219 8.05423 30.5563 8.05423H9.4452V8.05534Z" fill="black"/>
<path d="M20.5547 24.7224H19.4436C18.3714 24.7224 17.4991 23.8502 17.4991 22.778V20.278H14.9991C13.9269 20.278 13.0547 19.4057 13.0547 18.3335V17.2224C13.0547 16.1502 13.9269 15.2779 14.9991 15.2779H17.4991V12.7779C17.4991 11.7057 18.3714 10.8335 19.4436 10.8335H20.5547C21.6269 10.8335 22.4991 11.7057 22.4991 12.7779V15.2779H24.9991C26.0714 15.2779 26.9436 16.1502 26.9436 17.2224V18.3335C26.9436 19.4057 26.0714 20.278 24.9991 20.278H22.4991V22.778C22.4991 23.8502 21.6269 24.7224 20.5547 24.7224ZM14.9991 16.9446C14.8458 16.9446 14.7214 17.0691 14.7214 17.2224V18.3335C14.7214 18.4868 14.8458 18.6113 14.9991 18.6113H18.3325C18.7925 18.6113 19.1658 18.9846 19.1658 19.4446V22.778C19.1658 22.9313 19.2903 23.0557 19.4436 23.0557H20.5547C20.708 23.0557 20.8325 22.9313 20.8325 22.778V19.4446C20.8325 18.9846 21.2058 18.6113 21.6658 18.6113H24.9991C25.1525 18.6113 25.2769 18.4868 25.2769 18.3335V17.2224C25.2769 17.0691 25.1525 16.9446 24.9991 16.9446H21.6658C21.2058 16.9446 20.8325 16.5713 20.8325 16.1113V12.7779C20.8325 12.6246 20.708 12.5002 20.5547 12.5002H19.4436C19.2903 12.5002 19.1658 12.6246 19.1658 12.7779V16.1113C19.1658 16.5713 18.7925 16.9446 18.3325 16.9446H14.9991Z" fill="black"/>
<path d="M33.3337 6.18099C32.4148 6.18099 31.667 5.43321 31.667 4.51432C31.667 3.59543 32.4148 2.84766 33.3337 2.84766C34.2526 2.84766 35.0003 3.59543 35.0003 4.51432C35.0003 5.43321 34.2526 6.18099 33.3337 6.18099ZM33.3337 3.95877C33.027 3.95877 32.7781 4.20877 32.7781 4.51432C32.7781 4.81988 33.027 5.06988 33.3337 5.06988C33.6403 5.06988 33.8892 4.81988 33.8892 4.51432C33.8892 4.20877 33.6403 3.95877 33.3337 3.95877Z" fill="#EFD9CB"/>
</svg>
