<svg width="40" height="40" viewBox="0 0 40 40" fill="none" xmlns="http://www.w3.org/2000/svg">
<path d="M4.62955 30.6922C4.62955 23.0067 0.648438 17.7289 0.648438 14.0255C0.648438 10.3222 2.77733 2.54443 19.814 2.54443C36.8507 2.54443 39.3507 13.0078 39.3507 17.0811C39.3518 36.1555 4.62955 44.3033 4.62955 30.6922Z" fill="#EFEFEF"/>
<path d="M19.0285 30.4165C25.3184 30.4165 30.4174 25.3175 30.4174 19.0276C30.4174 12.7377 25.3184 7.63867 19.0285 7.63867C12.7386 7.63867 7.63965 12.7377 7.63965 19.0276C7.63965 25.3175 12.7386 30.4165 19.0285 30.4165Z" fill="#F3F3F1"/>
<path d="M10.1397 19.0276C10.1397 13.1609 14.5774 8.33312 20.2786 7.71089C19.8674 7.66645 19.4519 7.63867 19.0286 7.63867C12.7385 7.63867 7.63965 12.7376 7.63965 19.0276C7.63965 25.3176 12.7385 30.4165 19.0286 30.4165C19.4519 30.4165 19.8674 30.3898 20.2786 30.3442C14.5774 29.722 10.1397 24.8942 10.1397 19.0276Z" fill="#CBCBCB"/>
<path d="M32.5003 24.3843C32.5003 24.6398 32.3325 24.8598 32.1003 24.9354L26.7037 26.7032L24.9359 32.0998C24.8603 32.332 24.6403 32.4998 24.3848 32.4998C24.1359 32.4998 23.927 32.3432 23.8459 32.1287L19.2081 19.9554C19.1792 19.8921 19.167 19.8221 19.167 19.7465C19.167 19.4276 19.4281 19.1665 19.747 19.1665C19.8225 19.1665 19.8914 19.1776 19.9559 19.2076L32.1303 23.8454C32.3436 23.9254 32.5003 24.1343 32.5003 24.3843Z" fill="#AF5B29"/>
<path d="M21.7081 19.9554C21.6959 19.9287 21.6981 19.8976 21.6914 19.8687L19.9559 19.2076C19.8925 19.1787 19.8225 19.1665 19.747 19.1665C19.4281 19.1665 19.167 19.4276 19.167 19.7465C19.167 19.8221 19.1781 19.8909 19.2081 19.9554L23.8459 32.1287C23.927 32.3432 24.1359 32.4998 24.3848 32.4998C24.6403 32.4998 24.8603 32.332 24.9359 32.0998L25.5826 30.1254L21.7081 19.9554Z" fill="#7A2F03"/>
<path d="M3.19531 31.8062H5.41754V32.9173H3.19531V31.8062Z" fill="#EFD9CB"/>
<path d="M9.58496 31.8062H11.8072V32.9173H9.58496V31.8062Z" fill="#EFD9CB"/>
<path d="M6.80566 34.5835H7.91678V36.8057H6.80566V34.5835Z" fill="#EFD9CB"/>
<path d="M6.80566 28.1948H7.91678V30.417H6.80566V28.1948Z" fill="#EFD9CB"/>
<path d="M24.3831 33.3331C23.8009 33.3331 23.2709 32.9676 23.0643 32.4243L18.4265 20.2509C18.3698 20.1254 18.332 19.942 18.332 19.7454C18.332 18.9665 18.9654 18.332 19.7443 18.332C19.9454 18.332 20.132 18.3709 20.3009 18.4476L32.4231 23.0643C32.9676 23.2709 33.3331 23.8009 33.3331 24.3843C33.3331 24.9976 32.9398 25.5376 32.3565 25.7276L27.3631 27.3631L25.7265 32.3598C25.5354 32.942 24.9954 33.3331 24.3831 33.3331ZM20.1854 20.1865L24.3665 31.1587L25.9109 26.4443C25.9931 26.192 26.192 25.9943 26.4431 25.912L31.1576 24.3676L20.1854 20.1865ZM19.6587 19.9854C19.662 19.9876 19.6676 19.9898 19.6731 19.9909L19.6587 19.9854ZM19.9687 19.6165L19.9854 19.6587C19.9798 19.6454 19.9754 19.6309 19.9687 19.6165Z" fill="black"/>
<path d="M18.8892 31.1109C12.1503 31.1109 6.66699 25.6276 6.66699 18.8887C6.66699 12.1498 12.1503 6.6665 18.8892 6.6665C25.6281 6.6665 31.1114 12.1498 31.1114 18.8887C31.1114 19.1243 31.1003 19.3721 31.0881 19.6065L29.4237 19.5254C29.4337 19.3176 29.4448 19.0976 29.4448 18.8887C29.4448 13.0687 24.7092 8.33317 18.8892 8.33317C13.0692 8.33317 8.33366 13.0687 8.33366 18.8887C8.33366 24.7087 13.0692 29.4443 18.8892 29.4443C19.0981 29.4443 19.317 29.4343 19.5248 29.4232L19.6092 31.0876C19.3737 31.0998 19.1259 31.1109 18.8892 31.1109Z" fill="black"/>
<path d="M17.1764 25.3498C14.253 24.5743 12.2119 21.9176 12.2119 18.8887C12.2119 15.2065 15.2075 12.2109 18.8897 12.2109C21.9308 12.2109 24.5886 14.2532 25.3508 17.1776L23.7386 17.5987C23.1675 15.4076 21.173 13.8776 18.8897 13.8776C16.1275 13.8776 13.8786 16.1254 13.8786 18.8887C13.8786 21.1621 15.4108 23.1565 17.6041 23.7387L17.1764 25.3498Z" fill="black"/>
</svg>
