<svg width="40" height="40" viewBox="0 0 40 40" fill="none" xmlns="http://www.w3.org/2000/svg">
<path d="M9.30821 4.63004C16.9938 4.63004 22.2715 0.648926 25.9749 0.648926C29.6782 0.648926 37.456 2.77782 37.456 19.8145C37.456 36.8512 26.9927 39.3512 22.9193 39.3512C3.84488 39.3523 -4.3029 4.63004 9.30821 4.63004Z" fill="#EFEFEF"/>
<path d="M26.1115 19.4447V19.8669C26.1115 20.2891 25.8782 20.678 25.5004 20.8669L22.6448 22.2891C22.1004 22.5558 21.8782 23.2113 22.1337 23.7669L24.8448 29.4225C22.2448 31.6002 20.0004 32.778 20.0004 32.778C20.0004 32.778 16.9893 31.2002 13.9004 28.3113L14.0671 28.0336C15.4004 25.678 16.1115 23.0224 16.1115 20.3113V18.3336C16.1115 17.1113 17.1115 16.1113 18.3337 16.1113H20.5559C21.2559 16.1113 21.9115 16.4447 22.3337 17.0002L22.6671 17.4447C23.0893 18.0002 23.7448 18.3336 24.4448 18.3336H25.0004C25.6115 18.3336 26.1115 18.8336 26.1115 19.4447Z" fill="#AF5B29"/>
<path d="M32.7782 15.0891C32.7782 21.4668 28.456 26.4113 24.8449 29.4224L22.1338 23.7668C21.8782 23.2113 22.1004 22.5557 22.6449 22.2891L25.5004 20.8668C25.8782 20.6779 26.1115 20.2891 26.1115 19.8668V19.4446C26.1115 18.8335 25.6115 18.3335 25.0004 18.3335H24.4449C23.7449 18.3335 23.0893 18.0002 22.6671 17.4446L22.3338 17.0002C21.9115 16.4446 21.256 16.1113 20.556 16.1113H18.3338C17.1115 16.1113 16.1115 17.1113 16.1115 18.3335V20.3113C16.1115 23.0224 15.4004 25.6779 14.0671 28.0335L13.9004 28.3113C10.6115 25.2557 7.22266 20.7335 7.22266 15.0891C7.22266 11.3668 10.2449 8.3335 13.956 8.3335C16.6004 8.3335 18.9004 9.7335 20.0004 12.0002C21.1004 9.7335 23.4004 8.3335 26.0449 8.3335C29.756 8.3335 32.7782 11.3668 32.7782 15.0891Z" fill="#F3F3F1"/>
<path d="M19.4437 16.1113L18.8881 22.278C18.8548 22.5558 18.6215 22.778 18.3326 22.778C18.1103 22.778 17.9215 22.6447 17.8326 22.4669L16.1104 18.8891V18.3335C16.1104 17.1113 17.1104 16.1113 18.3326 16.1113H19.4437Z" fill="#AF5B29"/>
<path d="M9.44488 15.0891C9.44488 19.8891 11.9004 23.8891 14.656 26.8446C14.4893 27.2446 14.2893 27.6446 14.0671 28.0335L13.9004 28.3113C10.6115 25.2557 7.22266 20.7335 7.22266 15.0891C7.22266 11.3668 10.2449 8.3335 13.956 8.3335C14.3449 8.3335 14.7227 8.36683 15.0893 8.42238C11.8893 8.94461 9.44488 11.7335 9.44488 15.0891Z" fill="#CBCBCB"/>
<path d="M21.1115 32.1225C20.4226 32.5558 20.0004 32.778 20.0004 32.778C20.0004 32.778 16.9893 31.2002 13.9004 28.3113L14.0671 28.0336C15.4004 25.678 16.1115 23.0224 16.1115 20.3113V18.3336C16.1115 17.1113 17.1115 16.1113 18.3337 16.1113H20.556C19.3337 16.1113 18.3337 17.1113 18.3337 18.3336V20.3113C18.3337 23.0224 17.6226 25.678 16.2893 28.0336L16.1226 28.3113C18.056 30.1113 19.956 31.4113 21.1115 32.1225Z" fill="#7A2F03"/>
<path d="M18.3326 18.3335V18.8891L19.0548 20.4002L18.8881 22.278C18.8548 22.5558 18.6215 22.778 18.3326 22.778C18.1103 22.778 17.9215 22.6447 17.8326 22.4669L16.1104 18.8891V18.3335C16.1104 17.1113 17.1104 16.1113 18.3326 16.1113H19.4437L19.4103 16.4224C18.7659 16.8224 18.3326 17.5335 18.3326 18.3335Z" fill="#7A2F03"/>
<path d="M23.9695 29.5251L21.385 24.1218C20.9306 23.1718 21.3273 22.0151 22.2706 21.544L25.1239 20.1173C25.2184 20.0707 25.2773 19.9751 25.2773 19.8685V19.444C25.2773 19.2907 25.1528 19.1662 24.9995 19.1662H24.4439C23.4873 19.1662 22.5728 18.7096 21.9995 17.944L21.6662 17.5007C21.4062 17.1518 20.9906 16.9451 20.555 16.9451H18.3328C17.5673 16.9451 16.9439 17.5685 16.9439 18.334V20.314C16.9439 23.1618 16.1973 25.9729 14.785 28.4451L14.6128 28.7462L13.165 27.9196L13.3373 27.6185C14.6073 25.3973 15.2773 22.8718 15.2773 20.314V18.3329C15.2773 16.6473 16.6473 15.2773 18.3328 15.2773H20.555C21.5117 15.2773 22.4262 15.734 22.9995 16.4996L23.3328 16.944C23.5928 17.2929 24.0084 17.4996 24.4439 17.4996H24.9995C26.0717 17.4996 26.9439 18.3718 26.9439 19.444V19.8685C26.9439 20.6096 26.5317 21.2762 25.8684 21.6073L23.015 23.034C22.8806 23.1018 22.8239 23.2662 22.8895 23.4029L25.4739 28.8062L23.9695 29.5251Z" fill="black"/>
<path d="M18.3327 23.6112C17.8016 23.6112 17.3116 23.3034 17.0805 22.8257L15.3594 19.2501L16.8616 18.5279L18.1472 21.1968L18.6138 16.0356L20.2738 16.1856L19.716 22.3479C19.6505 23.069 19.0549 23.6112 18.3327 23.6112Z" fill="black"/>
<path d="M20.0008 33.6111C19.8674 33.6111 19.7341 33.58 19.6119 33.5156C19.073 33.2311 6.38965 26.4289 6.38965 15.0922C6.38965 10.9056 9.78298 7.5 13.953 7.5C16.4041 7.5 18.613 8.58889 20.0008 10.4144C21.3885 8.58889 23.5974 7.5 26.0485 7.5C30.2185 7.5 33.6119 10.9056 33.6119 15.0922C33.6119 26.4289 20.9285 33.2311 20.3897 33.5156C20.2674 33.58 20.1341 33.6111 20.0008 33.6111ZM13.953 9.16667C10.7019 9.16667 8.05632 11.8256 8.05632 15.0922C8.05632 24.3789 17.9041 30.6033 20.0008 31.8222C22.0952 30.6011 31.9452 24.3656 31.9452 15.0922C31.9452 11.8256 29.2997 9.16667 26.0485 9.16667C23.7352 9.16667 21.7052 10.3911 20.7497 12.3622C20.4719 12.9378 19.5274 12.9378 19.2497 12.3622C18.2963 10.3911 16.2663 9.16667 13.953 9.16667Z" fill="black"/>
<path d="M8.49316 5.73242L10.0645 4.16108L10.8502 4.94675L9.27884 6.5181L8.49316 5.73242Z" fill="#EFD9CB"/>
<path d="M3.97656 10.2495L5.54791 8.67816L6.33359 9.46383L4.76224 11.0352L3.97656 10.2495Z" fill="#EFD9CB"/>
<path d="M3.97754 4.74951L4.76321 3.96384L6.33456 5.53519L5.54889 6.32086L3.97754 4.74951Z" fill="#EFD9CB"/>
</svg>
