<svg width="40" height="40" viewBox="0 0 40 40" fill="none" xmlns="http://www.w3.org/2000/svg">
<path d="M1.1804 17.0108C5.24151 23.5353 4.6504 30.1197 6.60817 33.2641C8.56595 36.4086 14.4837 41.8864 28.9471 32.883C43.4104 23.8797 40.0037 13.6764 37.8515 10.2175C27.7715 -5.97587 -6.01183 5.45636 1.1804 17.0108Z" fill="#EFEFEF"/>
<path d="M1.74609 7.13477L3.31744 5.56342L4.10312 6.34909L2.53177 7.92044L1.74609 7.13477Z" fill="#EFD9CB"/>
<path d="M1.74707 1.63428L2.53275 0.848603L4.1041 2.41995L3.31842 3.20563L1.74707 1.63428Z" fill="#EFD9CB"/>
<path d="M31.4189 29.167H8.58111C7.98333 29.167 7.5 28.6826 7.5 28.0859V13.0259C7.5 12.4282 7.98444 11.9448 8.58111 11.9448H31.4178C32.0156 11.9448 32.4989 12.4293 32.4989 13.0259V28.0848C32.5 28.6826 32.0156 29.167 31.4189 29.167Z" fill="#EFEFEF"/>
<path d="M22.0641 29.7227C22.0641 29.7227 22.0641 31.1116 23.6119 32.5005H16.3896C17.9374 31.1116 17.9163 29.7227 17.9163 29.7227H22.0641Z" fill="#AF5B29"/>
<path d="M32.5 25.2778V27.6578C32.5 28.4823 32.0111 29.1667 31.4222 29.1667H8.57778C7.98889 29.1667 7.5 28.4823 7.5 27.6578V25.2778H32.5Z" fill="#AF5B29"/>
<path d="M29.1671 12.0835C29.1671 13.0057 29.9116 13.6112 30.8338 13.6112C31.756 13.6112 32.5005 12.8668 32.5005 11.9446C32.5005 11.629 32.4138 11.3357 32.2638 11.0857C32.0682 10.7612 32.0682 10.3501 32.2638 10.0246C32.4138 9.77458 32.5005 9.48124 32.5005 9.16569C32.5005 8.24347 31.756 7.49902 30.8338 7.49902C29.9116 7.49902 29.1671 8.10458 29.1671 9.0268H23.056C23.056 8.10458 22.3115 7.49902 21.3893 7.49902C20.4671 7.49902 19.7227 8.24347 19.7227 9.16569C19.7227 9.48124 19.8093 9.77458 19.9593 10.0246C20.1549 10.349 20.1549 10.7601 19.9593 11.0857C19.8093 11.3357 19.7227 11.629 19.7227 11.9446C19.7227 12.8668 20.4671 13.6112 21.3893 13.6112C22.3115 13.6112 23.056 13.0057 23.056 12.0835H29.1671Z" fill="#AF5B29"/>
<path d="M21.9449 12.2218C21.9449 12.7329 22.1782 13.1884 22.5449 13.4884C22.2449 13.744 21.8449 13.8884 21.3893 13.8884C20.4671 13.8884 19.7227 13.144 19.7227 12.2218C19.7227 11.9107 19.8115 11.6107 19.956 11.3662C20.156 11.0329 20.156 10.6329 19.956 10.2996C19.8115 10.0551 19.7227 9.75512 19.7227 9.44401C19.7227 8.52179 20.4671 7.77734 21.3893 7.77734C21.8449 7.77734 22.2449 7.92179 22.5449 8.17734C22.1782 8.47734 21.9449 8.9329 21.9449 9.44401C21.9449 9.75512 22.0338 10.0551 22.1782 10.2996C22.3782 10.6329 22.3782 11.0329 22.1782 11.3662C22.0338 11.6107 21.9449 11.9107 21.9449 12.2218Z" fill="#7A2F03"/>
<path d="M10.5979 28.9644H8.37563C7.78674 28.9644 7.29785 28.4755 7.29785 27.8866V12.82C7.29785 12.2311 7.78674 11.7422 8.37563 11.7422H10.5979C10.009 11.7422 9.52007 12.2311 9.52007 12.82V27.8866C9.52007 28.4755 10.009 28.9644 10.5979 28.9644Z" fill="#CBCBCB"/>
<path d="M10.5979 28.9641H8.37563C7.78674 28.9641 7.29785 28.4752 7.29785 27.8863V25.0752H9.52007V27.8863C9.52007 28.4752 10.009 28.9641 10.5979 28.9641Z" fill="#7A2F03"/>
<path d="M19.931 29.52C19.931 29.5978 19.9087 30.9422 18.4087 32.2978H16.1865C17.6865 30.9422 17.7087 29.5978 17.7087 29.52H19.931Z" fill="#7A2F03"/>
<path d="M31.4125 30.0002H8.5881C7.5281 30.0002 6.66699 29.1436 6.66699 28.0902V13.0213C6.66699 11.968 7.5281 11.1113 8.5881 11.1113H15.8337V12.778H8.5881C8.4481 12.778 8.33366 12.8869 8.33366 13.0213V28.0913C8.33366 28.2258 8.4481 28.3347 8.5881 28.3347H31.4137C31.5537 28.3347 31.6681 28.2258 31.6681 28.0913V17.5002H33.3337V28.0902C33.3337 29.1436 32.4725 30.0002 31.4125 30.0002Z" fill="black"/>
<path d="M23.6112 33.3335H16.389C16.0579 33.3335 15.7579 33.1368 15.6245 32.8335C15.4912 32.5302 15.5523 32.1757 15.7779 31.9324C17.0623 30.5491 17.0823 29.1902 17.0823 29.1779C17.0801 28.9546 17.1656 28.7391 17.3234 28.5813C17.4801 28.4224 17.6934 28.3335 17.9156 28.3335H22.0634C22.5212 28.3335 22.8923 28.7024 22.8967 29.1591C22.8979 29.2246 22.9423 30.5557 24.2212 31.9324C24.4467 32.1757 24.5067 32.529 24.3745 32.8335C24.2423 33.1379 23.9423 33.3335 23.6112 33.3335ZM18.0156 31.6668H21.9812C21.629 31.0279 21.4412 30.4424 21.3423 30.0002H18.6434C18.5479 30.4435 18.3645 31.0291 18.0156 31.6668Z" fill="black"/>
<path d="M7.5 24.4448H32.5V26.1115H7.5V24.4448Z" fill="black"/>
<path d="M30.8341 14.4443C29.723 14.4443 28.8241 13.8265 28.483 12.9165H23.7408C23.3996 13.8265 22.5008 14.4443 21.3896 14.4443C20.0119 14.4443 18.8896 13.3221 18.8896 11.9443C18.8896 11.4865 19.013 11.0409 19.2463 10.6554C19.2819 10.5943 19.2819 10.5165 19.2452 10.4554C19.013 10.0698 18.8896 9.62428 18.8896 9.1665C18.8896 7.78873 20.0119 6.6665 21.3896 6.6665C22.5008 6.6665 23.3996 7.28428 23.7408 8.19428H28.483C28.8241 7.28428 29.723 6.6665 30.8341 6.6665C32.2119 6.6665 33.3341 7.78873 33.3341 9.1665C33.3341 9.62428 33.2108 10.0698 32.9774 10.4554C32.9419 10.5165 32.9419 10.5943 32.9785 10.6554C33.2108 11.0421 33.3341 11.4865 33.3341 11.9443C33.3341 13.3221 32.2119 14.4443 30.8341 14.4443ZM23.0563 11.2498H29.1674C29.6274 11.2498 30.0008 11.6232 30.0008 12.0832C30.0008 12.5954 30.4496 12.7776 30.8341 12.7776C31.293 12.7776 31.6674 12.4032 31.6674 11.9443C31.6674 11.7887 31.6285 11.6443 31.5519 11.5165C31.1941 10.9232 31.1941 10.1876 31.5508 9.59428C31.6285 9.4665 31.6674 9.32206 31.6674 9.1665C31.6674 8.70761 31.293 8.33317 30.8341 8.33317C30.4496 8.33317 30.0008 8.51539 30.0008 9.02761C30.0008 9.48761 29.6274 9.86095 29.1674 9.86095H23.0563C22.5963 9.86095 22.223 9.48761 22.223 9.02761C22.223 8.51539 21.7741 8.33317 21.3896 8.33317C20.9308 8.33317 20.5563 8.70761 20.5563 9.1665C20.5563 9.32206 20.5952 9.4665 20.6719 9.59428C21.0296 10.1876 21.0296 10.9232 20.673 11.5165C20.5952 11.6443 20.5563 11.7887 20.5563 11.9443C20.5563 12.4032 20.9308 12.7776 21.3896 12.7776C21.7741 12.7776 22.223 12.5954 22.223 12.0832C22.223 11.6232 22.5963 11.2498 23.0563 11.2498Z" fill="black"/>
</svg>
