<svg width="40" height="40" viewBox="0 0 40 40" fill="none" xmlns="http://www.w3.org/2000/svg">
<path d="M4.62955 30.6917C4.62955 23.0062 0.648438 17.7284 0.648438 14.0251C0.648438 10.3217 2.77733 2.54395 19.814 2.54395C36.8507 2.54395 39.3507 13.0073 39.3507 17.0806C39.3518 36.1551 4.62955 44.3028 4.62955 30.6917Z" fill="#EFEFEF"/>
<path d="M5.41016 3.28027L6.9815 1.70893L7.76718 2.4946L6.19583 4.06595L5.41016 3.28027Z" fill="#EFD9CB"/>
<path d="M0.890625 7.79688L2.46197 6.22553L3.24765 7.0112L1.6763 8.58255L0.890625 7.79688Z" fill="#EFD9CB"/>
<path d="M0.892578 2.29883L1.67825 1.51315L3.2496 3.0845L2.46393 3.87018L0.892578 2.29883Z" fill="#EFD9CB"/>
<path d="M12.3883 19.5329L10.9217 23.644C10.4217 25.0773 12.1105 26.3329 13.5883 25.6329C13.8772 25.4962 14.1705 25.3696 14.4694 25.2562C15.5028 24.8607 16.6172 24.7218 17.725 24.7218H20.005C21.3828 24.7218 22.7605 24.9696 24.0161 25.5373C24.085 25.5685 24.1539 25.6007 24.2228 25.6329C25.7005 26.3329 27.3894 25.0773 26.8894 23.644L25.4228 19.5329C24.9672 18.2662 24.0894 17.1996 22.9561 16.4551C21.8117 15.7107 20.4117 15.2773 18.9228 15.2773C16.1339 15.2773 13.6205 16.7418 12.4317 19.4196L12.3883 19.5329Z" fill="#F3F3F1"/>
<path d="M25.175 31.5649L31.5639 25.176C32.1417 24.5982 32.4995 23.7993 32.4995 22.9171C32.4995 21.1527 31.0695 19.7227 29.305 19.7227C28.4228 19.7227 27.6239 20.0804 27.0461 20.6582L20.6572 27.0471C20.0795 27.6249 19.7217 28.4238 19.7217 29.306C19.7217 31.0704 21.1517 32.5004 22.9161 32.5004C23.7983 32.5004 24.5972 32.1427 25.175 31.5649Z" fill="#AF5B29"/>
<path d="M16.6628 12.3335C17.4408 11.8843 17.4646 10.469 16.7159 9.17233C15.9673 7.87566 14.7297 7.18865 13.9517 7.63784C13.1737 8.08703 13.1499 9.50233 13.8985 10.799C14.6472 12.0957 15.8848 12.7827 16.6628 12.3335Z" fill="#F3F3F1"/>
<path d="M23.88 10.7994C24.6286 9.50268 24.6048 8.08739 23.8268 7.6382C23.0488 7.189 21.8112 7.87602 21.0626 9.17268C20.3139 10.4694 20.3377 11.8847 21.1157 12.3338C21.8937 12.783 23.1313 12.096 23.88 10.7994Z" fill="#F3F3F1"/>
<path d="M11.2982 15.6388C11.9334 15.0036 11.6759 13.7161 10.7231 12.7633C9.77018 11.8104 8.48275 11.5529 7.84749 12.1882C7.21224 12.8234 7.46973 14.1108 8.42261 15.0637C9.37549 16.0166 10.6629 16.2741 11.2982 15.6388Z" fill="#F3F3F1"/>
<path d="M29.3481 15.0653C30.3009 14.1125 30.5584 12.825 29.9232 12.1898C29.2879 11.5545 28.0005 11.812 27.0476 12.7649C26.0947 13.7178 25.8372 15.0052 26.4725 15.6405C27.1077 16.2757 28.3952 16.0182 29.3481 15.0653Z" fill="#F3F3F1"/>
<path d="M23.155 27.0449C22.5772 27.6227 22.2217 28.4227 22.2217 29.3115C22.2217 30.6227 23.0217 31.756 24.1661 32.2449C23.7883 32.4115 23.355 32.5004 22.9106 32.5004C21.155 32.5004 19.7217 31.0671 19.7217 29.3115C19.7217 28.4227 20.0772 27.6227 20.655 27.0449L27.0439 20.656C27.6217 20.0782 28.4217 19.7227 29.3106 19.7227C29.755 19.7227 30.1661 19.8115 30.555 19.9782C30.1772 20.1338 29.8328 20.3671 29.5439 20.656L23.155 27.0449Z" fill="#7A2F03"/>
<path d="M18.9217 15.2773C19.3439 15.2773 19.755 15.3107 20.1661 15.3773C17.8994 15.7551 15.9439 17.1551 14.9328 19.4218L14.8883 19.5329L13.4217 23.644C13.1661 24.3662 13.4772 25.044 14.0217 25.4329L13.5883 25.6329C12.1105 26.3329 10.4217 25.0773 10.9217 23.644L12.3883 19.5329L12.4328 19.4218C13.6217 16.744 16.1328 15.2773 18.9217 15.2773Z" fill="#CBCBCB"/>
<path d="M22.9184 33.3336C20.6973 33.3336 18.8906 31.5269 18.8906 29.3058C18.8906 28.2303 19.3095 27.2192 20.0695 26.458L26.4595 20.0692C27.2206 19.308 28.2317 18.8892 29.3073 18.8892C31.5284 18.8892 33.3351 20.6958 33.3351 22.9169C33.3351 23.9925 32.9162 25.0036 32.1562 25.7647L25.7662 32.1536V32.1547C25.0051 32.9147 23.994 33.3336 22.9184 33.3336ZM29.3073 20.5558C28.6773 20.5558 28.0828 20.8014 27.6373 21.248L21.2484 27.6358C20.8028 28.0814 20.5573 28.6758 20.5573 29.3058C20.5573 30.608 21.6162 31.6669 22.9184 31.6669C23.5484 31.6669 24.1417 31.4214 24.5884 30.9758L30.9773 24.5869C31.4228 24.1414 31.6684 23.5469 31.6684 22.9169C31.6684 21.6147 30.6095 20.5558 29.3073 20.5558Z" fill="black"/>
<path d="M23.4375 24.6211L24.616 23.4426L28.7738 27.6004L27.5953 28.7789L23.4375 24.6211Z" fill="black"/>
<path d="M16.1281 13.3045C15.7203 13.3045 15.2881 13.1867 14.8637 12.9512C14.2115 12.589 13.6115 11.9734 13.1748 11.2167C12.1803 9.49451 12.3381 7.60562 13.5326 6.91673C14.1615 6.55229 14.9681 6.58896 15.747 7.02229C16.3992 7.38451 16.9992 8.00007 17.4359 8.75673C18.4303 10.479 18.2726 12.3678 17.0781 13.0567C16.7915 13.2212 16.4681 13.3045 16.1281 13.3045ZM14.4859 8.33451C14.4348 8.33451 14.3948 8.3434 14.367 8.35896C14.1315 8.49562 14.0459 9.39007 14.6192 10.3823C15.1926 11.3734 16.0037 11.7423 16.2459 11.6112C16.4815 11.4745 16.567 10.5812 15.9937 9.58785C15.7103 9.09785 15.3259 8.69229 14.9392 8.47785C14.7526 8.37562 14.5959 8.33451 14.4859 8.33451Z" fill="black"/>
<path d="M21.6486 13.3039C21.3075 13.3039 20.9841 13.2217 20.6986 13.055C19.5041 12.3661 19.3464 10.4772 20.3408 8.75501C20.7775 7.99834 21.3775 7.38389 22.0297 7.02056C22.8075 6.58945 23.6153 6.55056 24.2441 6.91501C25.4386 7.60389 25.5964 9.49278 24.6019 11.215C24.1653 11.9717 23.5653 12.5861 22.913 12.9494C22.4886 13.1839 22.0575 13.3039 21.6486 13.3039ZM21.783 9.58834C21.2097 10.5828 21.2964 11.475 21.5308 11.6117C21.7741 11.745 22.5841 11.3739 23.1575 10.3828C23.7308 9.38945 23.6441 8.49612 23.4097 8.35945C23.3208 8.30834 23.1097 8.32834 22.8375 8.47834C22.4508 8.69278 22.0664 9.09723 21.783 9.58834Z" fill="black"/>
<path d="M10.3734 16.8209C9.5356 16.8209 8.60004 16.4187 7.83449 15.652C6.53671 14.3542 6.28338 12.5731 7.25893 11.5987C7.76227 11.0953 8.51671 10.8964 9.33116 11.0631C10.0334 11.2031 10.7378 11.5976 11.3134 12.1742C11.89 12.7509 12.2834 13.4542 12.4245 14.1564C12.5867 14.9698 12.3923 15.7253 11.8889 16.2287C11.49 16.6275 10.9545 16.8209 10.3734 16.8209ZM8.7756 12.6709C8.6256 12.6709 8.50671 12.7076 8.43671 12.7764C8.3356 12.8776 8.30671 13.0887 8.35671 13.3431C8.43227 13.7209 8.67116 14.1331 9.01227 14.4742C9.35338 14.8153 9.76671 15.0542 10.1445 15.1298C10.3978 15.1798 10.6089 15.1509 10.7112 15.0498C10.8123 14.9487 10.8423 14.7376 10.7912 14.4842C10.7156 14.1053 10.4767 13.6931 10.1356 13.352C9.79449 13.0109 9.38227 12.772 9.00338 12.6964C8.92338 12.6798 8.84671 12.6709 8.7756 12.6709Z" fill="black"/>
<path d="M27.4044 16.8205C26.8232 16.8205 26.2877 16.626 25.8888 16.2271C25.3855 15.7249 25.1899 14.9694 25.3532 14.156C25.4944 13.4538 25.8877 12.7494 26.4644 12.1738C27.041 11.5982 27.7444 11.2027 28.4466 11.0627C29.2599 10.8982 30.0155 11.0949 30.5188 11.5982C31.4944 12.5738 31.241 14.3538 29.9432 15.6516C29.1777 16.4171 28.2421 16.8205 27.4044 16.8205ZM29.0021 12.6705C28.9321 12.6705 28.8544 12.6793 28.7744 12.6949C28.3955 12.7693 27.9832 13.0094 27.6421 13.3505C27.301 13.6916 27.0632 14.1038 26.9866 14.4827C26.9355 14.736 26.9655 14.9471 27.0666 15.0471C27.1677 15.1494 27.3777 15.1794 27.6332 15.1282C28.011 15.0538 28.4244 14.8138 28.7655 14.4727C29.1066 14.1316 29.3444 13.7194 29.421 13.3416C29.471 13.0871 29.4421 12.876 29.341 12.7749C29.271 12.7082 29.151 12.6705 29.0021 12.6705Z" fill="black"/>
<path d="M12.7043 26.6686C12.0198 26.6686 11.3487 26.422 10.8232 25.9509C10.0787 25.2798 9.81539 24.2931 10.1365 23.372L11.6054 19.2553C12.1154 17.8353 13.0809 16.6275 14.3987 15.7598C15.7209 14.8986 17.2732 14.4453 18.8887 14.4453C21.4354 14.4453 23.7332 15.5853 25.1943 17.5731L23.8509 18.5609C22.7076 17.0053 20.8987 16.112 18.8887 16.112C17.5965 16.112 16.3587 16.472 15.3098 17.1542C14.2998 17.8186 13.5598 18.7398 13.1732 19.8164L11.7065 23.9253C11.5732 24.3075 11.7932 24.582 11.9365 24.7098C12.1998 24.9475 12.6998 25.1342 13.2321 24.8809C14.7454 24.1586 16.3754 23.7431 18.0732 23.6464L18.1687 25.3109C16.6876 25.3942 15.2676 25.7564 13.9476 26.3864C13.5476 26.5764 13.1243 26.6686 12.7043 26.6686Z" fill="black"/>
</svg>
