<svg width="203" height="203" viewBox="0 0 203 203" fill="none" xmlns="http://www.w3.org/2000/svg">
<path d="M27.0857 136.431L23.3056 134.562C15.1388 130.523 13.7824 119.44 20.7341 113.551C23.7477 110.998 27.7801 109.998 31.6376 110.846L39.0636 112.479C45.998 114.004 53.2527 112.839 59.3617 109.221L93.1664 89.2L122.79 68.8344C127.46 65.6241 131.297 61.3472 133.985 56.3581L142.468 40.6085C145.778 34.4627 153.026 31.5847 159.651 33.7857C166.613 36.0987 170.715 43.2845 169.167 50.4556L168.522 53.442C167.168 59.7138 170.919 65.9587 177.092 67.7102C181.074 68.8402 184.209 71.9183 185.411 75.8799L185.52 76.2403C188.175 84.9901 181.103 93.6358 172 92.7676L149.269 90.5994C143.814 90.0791 138.325 91.1617 133.476 93.7144L95.4879 113.714C88.8242 117.222 82.7271 121.714 77.4021 127.039L72.2688 132.172C68.0027 136.438 64.7103 141.577 62.6177 147.236L58.2957 158.923C57.0463 162.301 54.4547 165.013 51.1358 166.413L49.6175 167.054C39.7546 171.215 29.646 161.676 33.2296 151.589C35.3183 145.709 32.6786 139.197 27.0857 136.431Z" fill="#FFF3EB" stroke="#FFF3EB" stroke-width="4"/>
</svg>
